<svg width="390" height="117" viewBox="0 0 390 117" fill="none" xmlns="http://www.w3.org/2000/svg">
<path d="M70.731 62.0172C72.0078 62.4479 73.4937 63.0883 75.1888 63.9387C78.1607 65.6503 80.7033 67.9914 82.8387 70.973C85.3923 75.2356 86.6581 80.3485 86.6581 86.3117C86.6581 106.774 74.3303 117 49.6966 117H1.91522C0.638406 117 0 116.36 0 115.079V16.6196C0 15.3387 0.638406 14.6982 1.91522 14.6982H52.2612C61.1879 14.6982 68.3975 17.1607 73.923 22.0528C79.4375 26.9558 82.2113 33.4601 82.2113 41.5546C82.2113 46.2479 81.1436 50.4 79.0303 54.0221C76.8949 57.6552 74.1321 60.3166 70.731 62.0172ZM49.0692 102.291C56.2898 102.291 61.5952 101.12 64.9963 98.7791C68.3865 96.438 70.0926 92.3853 70.0926 86.6319C70.0926 80.8785 68.3865 76.8368 64.9963 74.4847C61.5952 72.1436 56.2788 70.973 49.0692 70.973H19.1192C17.4131 70.973 16.5655 71.6135 16.5655 72.8945V100.391C16.5655 101.672 17.4131 102.313 19.1192 102.313H49.0692V102.291ZM19.1192 29.4074C17.8423 29.4074 17.2039 30.0479 17.2039 31.3288V54.3423C17.2039 55.6233 17.8423 56.2638 19.1192 56.2638H48.4308C59.4708 56.2638 64.9963 51.7914 64.9963 42.8356C64.9963 33.8798 59.4708 29.4074 48.4308 29.4074H19.1192V29.4074ZM173.977 62.0172C175.253 62.4479 176.53 63.0883 177.796 63.9387C181.186 65.6503 183.74 67.9914 185.446 70.973C188.418 75.2356 189.904 80.3485 189.904 86.3117C189.904 106.774 177.576 117 152.942 117H105.15C103.873 117 103.235 116.36 103.235 115.079V16.6196C103.235 15.3387 103.873 14.6982 105.15 14.6982H155.496C163.993 14.6982 171.104 17.1607 176.849 22.0528C182.584 26.9558 185.457 33.4601 185.457 41.5546C185.457 46.2479 184.389 50.4 182.276 54.0221C180.13 57.6552 177.367 60.3166 173.977 62.0172ZM121.715 29.4074C120.439 29.4074 119.8 30.0479 119.8 31.3288V54.3423C119.8 55.6233 120.439 56.2638 121.715 56.2638H151.665C162.705 56.2638 168.231 51.7914 168.231 42.8356C168.231 33.8798 162.705 29.4074 151.665 29.4074H121.715V29.4074ZM152.304 102.291C159.524 102.291 164.83 101.12 168.231 98.7791C171.621 96.438 173.327 92.3853 173.327 86.6319C173.327 80.8785 171.621 76.8368 168.231 74.4847C164.83 72.1436 159.513 70.973 152.304 70.973H121.715C120.439 70.973 119.8 71.6135 119.8 72.8945V100.391C119.8 101.672 120.439 102.313 121.715 102.313H152.304V102.291ZM281.031 15.9791C281.449 15.1288 281.878 14.6982 282.308 14.6982H298.873C299.291 14.6982 299.721 14.919 300.15 15.3387C300.568 15.7693 300.568 16.2 300.15 16.6196L247.261 116.36C246.832 116.79 246.304 117 245.665 117C245.027 117 244.487 116.79 244.069 116.36L191.181 16.6196C190.751 16.2 190.641 15.7693 190.861 15.3387C191.071 14.919 191.599 14.6982 192.457 14.6982H208.385C209.232 14.6982 209.87 15.1288 210.3 15.9791L244.069 79.9178C244.069 80.3485 244.487 80.5583 245.346 80.5583C246.194 80.5583 246.832 80.3485 247.261 79.9178L281.031 15.9791ZM300.15 101.021C299.721 101.882 299.082 102.302 298.235 102.302H281.669C281.24 102.302 280.921 102.092 280.712 101.661C280.491 101.242 280.392 100.811 280.392 100.38L333.292 0.640491C333.71 0.220859 334.349 0 335.207 0C336.055 0 336.693 0.220859 337.122 0.640491L390 100.38C390 100.811 389.89 101.242 389.681 101.661C389.461 102.092 389.141 102.302 388.723 102.302H372.158C371.299 102.302 370.661 101.882 370.242 101.021L337.1 37.0822C336.671 36.2319 336.033 35.8012 335.185 35.8012C334.327 35.8012 333.688 36.2319 333.27 37.0822L300.15 101.021Z" fill="#004580"/>
</svg>
