<svg width="325" height="82" fill="none" xmlns="http://www.w3.org/2000/svg"><path d="M111.624 38.53c7.963 2.654 12.483 7.245 13.056 15.208.646 8.824-3.156 15.424-10.258 20.302-4.089 2.87-8.752 4.591-13.63 5.452-9.255 1.722-18.58 1.793-27.835.287-9.325-1.507-13.415-7.174-11.406-16.5 4.16-19.226 8.609-38.451 12.985-57.605.358-1.507.789-2.655 2.726-2.798 10.473-.933 20.875-2.511 31.421-.718 3.874.646 7.604 1.579 11.048 3.3 11.908 5.883 13.128 20.087 2.582 28.05-3.013 2.224-6.385 3.658-10.689 5.022zM84.22 45.847a1975.321 1975.321 0 01-3.945 17.647c-.503 2.153-.216 3.874 2.367 4.018 6.026.287 12.052 0 17.432-3.157 4.089-2.367 5.811-6.098 5.237-10.832-.574-4.52-3.802-6.313-7.748-7.533-4.376-1.291-8.608.861-13.343-.143zm13.272-31.35c-1.865 1.22-5.38-1.721-6.528 2.152-1.22 4.305-2.08 8.752-3.085 13.2-.359 1.507.143 2.87 1.793 2.942 6.457.358 12.913.43 18.15-4.161 5.093-4.448 3.515-11.335-2.941-13.415-2.296-.646-4.663-.646-7.39-.718zM267.367 15.573C263.708 5.53 254.454 3.163 244.985 2.23c-8.752-.86-17.576-.43-26.328.574-3.013.359-4.519 1.507-5.237 4.663-5.165 23.53-10.545 47.06-15.782 70.59-.215.86-.646 1.793.502 2.87h6.887c8.752 0 11.334-2.08 13.271-10.546a2030.987 2030.987 0 003.372-14.993c1.793-.646 3.228-.144 4.663-.072 12.626.43 24.606-1.65 33.86-11.12 7.891-8.034 11.191-17.79 7.174-28.623zm-15.782 12.555c-1.722 8.178-8.752 13.271-18.437 13.343-6.313 0-6.887-.718-5.524-7.102 1.148-5.237 2.368-10.402 3.3-15.64.431-2.582 1.722-3.586 4.233-3.586 2.654-.072 5.308-.215 7.963.287 6.886 1.291 9.899 5.81 8.465 12.698zM196.562 3.593c-16.572-6.026-32.497-4.95-46.199 6.887-13.128 11.335-17.289 26.4-15.639 43.33.932 9.684 5.021 17.79 13.702 22.74 11.047 6.314 22.884 6.529 34.793 3.014 2.654-.79 4.662-2.655 5.38-5.452 1.076-4.233 2.009-8.466 3.085-13.272-3.731 2.009-6.744 3.874-10.187 4.95-10.833 3.372-21.665-.79-25.467-9.828-5.237-12.483 2.224-32.139 14.634-37.878 10.187-4.663 20.015-2.582 29.843 2.87.574-2.152 1.148-4.09 1.65-6.026 1.435-5.955.216-9.183-5.595-11.335z" fill="#004192"/><path d="M30.13 9.476c9.756 4.95 17.576 12.052 23.315 21.234 3.515 5.667 3.084 11.909-.861 17.36-8.107 11.335-18.867 19.657-31.35 25.396C12.841 77.34 3.587 72.82 0 63.71c5.022-2.655 10.043-5.38 14.634-8.752 6.887-5.022 12.842-10.833 15.783-19.083 4.017-8.823 4.376-17.647-.287-26.4zM299.147 9.476c9.756 4.878 17.576 12.123 23.386 21.234 3.516 5.524 3.229 11.622-.573 17.002-8.179 11.621-19.154 20.087-31.924 25.897-8.321 3.73-17.36-.86-20.875-9.756 4.734-2.583 9.541-5.165 13.917-8.393 7.102-5.165 13.415-11.048 16.428-19.585 4.089-8.895 4.376-17.719-.359-26.4z" fill="#F96A53"/><path d="M30.13 9.476c4.663 8.752 4.232 17.504.215 26.327-6.098-6.6-13.702-11.119-21.736-14.706C12.84 9.691 22.454 4.67 30.129 9.476zM299.147 9.476c4.735 8.752 4.448 17.504.287 26.4-6.026-6.6-13.559-11.048-22.024-14.85 2.798-6.313 6.815-10.905 13.128-13.272 3.229-1.291 6.026-.359 8.609 1.722z" fill="#004192"/></svg>