<svg width="245" height="135" fill="none" xmlns="http://www.w3.org/2000/svg"><path fill-rule="evenodd" clip-rule="evenodd" d="M129.383 44.03c-4.611 1.072-1.812 12.779-21.081 9.976-4.529-.66-7.823-3.627-10.129-6.1-3.13-3.298-1.153-8.822-2.141-13.438-.494-2.226-.082-3.875.494-6.513 1.4-7.09 1.73-6.265 5.847-10.14 2.059-1.978 1.235-1.978 4.858-2.885 2.141-.577 4.447-1.32 7.165-.742 7.74 1.731 6.423 2.72 7.905 3.957.659.577 1.4.99 2.306 1.731 2.059 1.566 1.894 2.143 3.129 4.534l2.059-.247.165-9.48c-1.4-1.32-4.53-2.309-6.671-3.05-2.305-.743-16.14-.908-18.857-.083-3.212.99-5.188 1.484-6.341 3.132-.741 1.072-1.4 1.732-2.8 2.226-1.73.66-2.059.248-2.965 1.814l-3.129 6.183c-2.14 4.534-2.882 10.964-1.482 16.24.906 3.215 2.8 7.255 5.352 9.316 3.789 3.133 10.294 7.337 15.976 7.997 6.176.742 11.446-.495 16.47-2.391 7.082-2.72 5.599-3.463 5.023-8.244-.412-1.814-.082-2.72-1.153-3.792zm29.81 13.109c.824-1.979.824-2.144-.741-3.793-1.482-1.483-1.482-1.319-1.647-3.957-.165-3.297-.494-7.09-.823-10.47-.412-3.874-1.071-5.77-4.283-7.09-5.435-2.143-9.14.825-9.305.908-1.647.494-1.317-2.72-.988-3.875.412-1.484 1.647-2.556 1.318-3.875-.248-1.071-.742-.989-.824-2.143-.082-.742.247-1.484.412-2.308.247-1.814-.165-2.886.247-4.947 1.153-6.677-2.718-4.451-4.447-1.649-2.059 3.38-5.27 1.897-5.929 5.277.906 1.401 2.223 1.154 3.459 2.638.576 5.028-.247 13.85-.412 19.043-.083 3.05.659 5.853.412 9.15-.247 3.463-2.8 3.793-3.541 5.936 1.235 2.391 4.446.825 7.164.742 1.317-.082 8.317.99 7.082-1.73-2.059-1.897-3.788.246-4.612-3.298-.658-2.72.165-4.205-.164-6.76-.33-2.391-1.071-4.04-.165-6.596.576-1.73 2.141-3.627 3.788-3.957 4.776-1.071 5.435 6.183 5.682 9.81.082 1.484.412 5.936.247 7.173-.412 2.968-2.388 2.72-3.294 4.37.906 1.565 2.8 1.565 5.188 1.4 2.223-.247 4.2.33 6.176 0zm30.14 50.7c-5.271-.825-7.165 2.061-12.682.906-5.847-1.154-7.247-1.484-7.164-7.749 0-.989-.165-6.265 0-6.677.247-.413-.33-.825 2.882-.907 1.235 0 2.306.247 3.458.247 1.812.082 4.447-.66 6.506-.907 2.141-.247 5.106-.082 7.082-.494.659-3.216-.082-3.38-1.482-4.782-3.212-3.215-4.365-6.513-14.082-5.194-2.47.33-3.211.66-4.941 1.814-5.352 3.71-5.188 8.656-5.682 13.932-.494 4.864-1.153 7.337 1.071 11.459 1.564 2.886 3.541 5.112 6.999 6.101 3.047.824 20.34 1.978 18.035-7.749zm-19.27-17.56c-.247-2.72 1.153-3.957 3.788-4.287 2.8-.33 5.106.33 5.106 2.968-1.894.907-6.423 1.402-8.894 1.319zm70.573.907c0-3.875-1.236-6.513-4.694-7.585-4.035-1.154-6.341-1.648-10.129.495-3.87 2.226-7.164 8.903 3.87 4.287 2.8-1.154 1.977-1.154 4.365 0 .411 6.513-2.224 9.233-6.341 11.624-4.612 2.638-7.494 3.71-7.247 10.552.247 7.007 7.988 6.348 11.611 4.699 3.459-1.484 6.094 4.04 12.929-1.484l-.082-2.391c-4.777-3.05-4.282-1.401-4.118-7.749 0-4.04-.164-8.326-.164-12.448zm-6.588 18.549c-1.4.412-2.882 1.648-4.694.906-3.623-1.401-1.4-9.562 4.117-10.222.412 1.649.494 7.337.577 9.316zm-36.975-16.818c1.977 1.814 4.118-.33 5.435 1.649 1.071 1.566.412 16.57-.329 18.219-.906 1.896-1.565 2.226-2.223 4.781-.577 2.391-.742 2.886-2.224 4.534-1.894 2.144.906 2.391 2.635 1.155 3.788-2.638 4.694-3.957 6.012-7.667.741-2.226 1.811-2.803 2.141-4.534 1.153-5.689 1.729-6.183 1.482-11.624-.165-3.875 1.318-7.09 1.482-8.904.083-1.236-.164-1.896.165-3.132.576-2.474 5.847-7.42-.494-7.75-.988 3.957-2.471 4.534-5.353 6.43-2.553 1.65-5.023 2.804-8.482 3.38-.494 1.402-.823 2.227-.247 3.463zm29.399-57.048c2.141 1.484 4.117.165 6.505-.824 3.541-1.484 3.294 1.896 2.471 4.37-1.565 5.11-6.506 4.863-8.976 8.16-1.4 1.814-4.118 9.728 4.364 9.81 2.388 0 1.976-.329 3.706-.906 2.882-.907 4.694 3.298 9.882-.907.164-3.215-.824-2.06-2.553-3.627-1.565-1.32-.824-2.39-.741-4.534.082-2.556.247-9.893-.083-12.119-.576-3.05-3.952-4.864-7.74-4.616-3.294.247-6.753 2.473-6.835 5.193zm8.976 9.069l.411 7.09c-7.493 4.698-5.764-7.503-.411-7.09zm-54.268 8.738c-1.564-1.401-3.294-1.401-3.458-3.627-.495-5.77 2.388-16.158-2.883-18.384-9.47-3.957-15.399 6.513-8.235 4.617 1.483-.413 4.2-2.226 5.518-1.32 1.4.99.247 4.535-.247 5.689-2.388 5.276-10.294 3.71-9.964 12.118.082 2.556.741 3.628 3.047 4.287 3.129.99 3.952.33 6.423-.494 2.223-.66 3.047 1.4 6.258.824 2.718-.412 3.706-1.567 3.541-3.71zm-8.482-1.649c-6.588 3.38-5.929-3.462-3.458-5.688l2.305-1.319c.577-.082.412 0 .659 0 .33 1.072.412 5.441.494 7.007zm-15.152 63.149c.33-4.122-2.553-2.474-3.294-6.266-.741-3.874-.823-19.95.33-24.237.164-.577.494-1.072.082-1.814-1.482-.412-2.141.66-3.212 1.484-1.07.825-2.141 1.072-3.129 1.979-3.047 2.72-4.858 1.978-5.682 4.287.906 1.484 1.894 1.484 3.953 2.226.247 2.967.082 3.874-.082 6.595-.248 4.122 1.235 10.634-1.483 12.283-2.141 1.319-3.541.495-4.282 2.803 1.071 2.473 4.612 1.731 7.988 1.319 3.623-.33 6.011.66 8.811-.659zm57.232-71.31c0-1.731.165-3.298.165-4.947 0-2.308-.082-2.802 1.4-3.792 1.647.825 1.729 2.968 4.611 2.309 2.306-.577 2.306-2.72 2.306-4.864-1.812-.907-1.812-2.391-4.941-1.567-.659.165-2.141.825-2.47.907-1.235.083-.824-.412-2.306-.989-1.153.495-2.141 1.319-3.541 2.06-3.953 1.897-7.329 1.815-2.8 4.205 1.153.577 1.647 2.309 1.894 3.463v10.47c-.165 2.308-.247 2.39-1.894 3.38-1.317.742-2.306 1.154-1.482 2.885 1.565.99 3.706-.412 5.435-.495a24.231 24.231 0 013.459 0l2.47-.33c.082-.082.165-.082.247-.164.988-1.567-1.482-2.061-2.141-3.463-.576-1.484-.412-7.09-.412-9.068zm-10.54 7.667c-2.388-.742-8.4 4.04-13.341-.33-1.317-1.154-2.058-3.463-2.882-5.441-.906-2.143-.247-4.452.165-6.925 1.482-8.079 7.74-3.133 9.882-2.638 5.929 1.484 4.776-5.853-2.8-5.44-11.776.659-14.247 10.14-11.529 19.784 2.717 10.223 20.916 6.925 20.505.99zM154.582 75.11c.823-1.978-.906-3.874-2.718-4.204-2.964-.577-4.858-.247-5.023 2.638-.165 2.803 0 4.204 3.047 4.534 2.388.082 3.953-1.401 4.694-2.968zm47.762-.33c1.235 5.194 8.152 3.628 7.987.165-.164-5.358-8.893-4.122-7.987-.164zM87.714 67.28c-.164 2.143.413 2.638 2.224 3.297 2.224.825 2.059.99 3.377 2.39 1.976 2.062 2.635 4.37 3.705 7.256 1.483 4.039 3.294 3.544 4.365 7.007.576 1.813 1.153 2.226 2.058 3.627 1.236 1.814.742 1.731.989 4.287.247 1.896 2.635 6.1 3.705 7.667 1.565 2.308.412 2.308 1.235 4.287l1.483 3.874c.823 2.144 1.647 7.502 4.941 6.018 1.811-.824 2.964-4.781 3.87-7.172 3.706-9.728 4.694-8.656 7.576-14.839.659-1.401.824-2.885 1.482-4.204.577-1.32 1.318-2.391 1.977-3.71.658-1.484.905-2.72 1.729-3.957.906-1.237 1.647-1.567 2.306-3.05 2.141-4.947 1.976-7.173 7.329-9.728.823-.412 6.258-1.896 4.035-3.298-.741-.412-1.318-.165-2.306-.082-5.188.494-14.987-.825-16.387.247-1.565 1.814-.083 2.886 1.647 3.627 2.47 1.072 2.47 1.65 2.141 4.535-.33 2.885.082 1.896-1.153 3.874-.247.412-.33.66-.494 1.154-.741 1.814-1.235 2.638-2.224 4.122-2.058 3.05-2.305 5.606-3.952 9.069-.33.66-4.365 7.254-6.835 6.018-.741-.825-.494-.825-.824-2.144-.411-1.649-.411-.824-.906-2.06-1.399-3.38-4.035-12.284-4.611-13.356-1.071-1.896-3.953-5.688-3.623-8.244.164-1.236 1.811-1.978 3.047-2.968 1.564-1.236 1.894-4.04-.989-4.286l-1.153.082-8.481.33c-3.624-.083-8.07-.825-11.282.33zM2.847 42.318C2.764 45.515-.307 51.991.025 53.466c.332 1.394 1.66 1.722 2.74 2.214.248 1.64-.333 2.459 3.652 2.377 1.743 3.607 4.482 2.46 5.728 2.787.58.164.332.082.498.328l.664.656a18.86 18.86 0 001.66.573c1.91.656 1.577.574 3.486 0 .083 0 .083.082.166.082.332 1.394 3.653.656 4.483.574 1.245-.164.415 0 1.577.328 3.487 1.148 2.823-1.803 3.985-3.689 2.49 3.525-1.412 17.297-3.072 21.477-1.162 2.951-.913 4.18-1.66 4.919-.83.737-1.162 1.23-1.66 2.295-.996 2.131-.83 2.623.249 4.18-.83 1.886-1.992 3.361-2.407 5.657-.416 2.459-.914 4.918-.914 7.541-.083 4.263-1.328 10.493-4.316 11.968-1.826.902-3.819 1.23-5.396 2.787-.664.738-1.245 1.558-1.909 2.296-3.818 3.934-.083 5.246 3.403 6.311 1.163.328 2.906 1.722 5.562 2.788 1.494.573 5.313.983 7.139 1.065 2.407.164 4.732.984 7.056 1.312 3.154.492 12.617 1.311 15.274 0 1.079-.492 1.245-.984 2.74-1.23 1.161-.246 2.49-.164 3.818-.41 1.245-.246 2.573-.246 3.818-.41 1.66-.164 5.894-.901 6.807-1.639 1.411-1.148.083-.82 2.241-1.967 1.411-.738.415-.984 2.573-1.558l2.325-1.803c.166-1.886-.581-3.771-1.578-4.673-.58-.574-1.328-.574-2.158-1.065-.83-.41-1.245-.902-2.158-1.312-4.649-2.377-13.282-.164-9.712-14.427.415-1.558 1.992-10.165 2.407-10.739 1.494-1.803 1.91-1.065 1.66-4.262-.166-2.623.166-2.623-.498-5.574-.249-.984-.166-1.886-.415-2.787-.249-.902-.58-1.558-.747-2.46-.913-5.82-2.656-6.066-3.652-9.427-.332-1.23.083-1.393-.664-2.54-2.242-3.198-.664-1.804-.748-4.92 0-1.065-.332-1.884-.415-2.95-.249-2.05-1.41-3.77-.166-5.246l.416-.164c.083 0 .166 0 .166-.082 1.992-.492 3.237-1.722 4.233-3.607 2.241-3.935.747-8.69 4.566-5.082.498.491.58.491 1.079.901 0 0 .083.082.166.082 0 0 .083.082.166.082 0 0 .083.082.166.082 0 0 .083.082.083.164.166.164.332.41.415.574 1.411 1.721 4.482 1.311 5.23-.738.497-1.393.082-1.475.913-3.115 1.66-3.197 1.909-6.804 1.909-10.41 0-1.722-.332-2.787-.498-4.263-.25-2.46.913-1.476 2.407-1.64.913-2.295 1.577-1.72 3.237-.82 1.993.985 3.238.739 4.4-.327.332-2.87-1.494-4.837-2.158-7.46 1.909-2.869 4.565-2.295.415-8.36-4.234-6.067-7.305-1.722-8.218-1.64-1.245.082-8.218-6.722-9.214-1.23-.332 1.722.664 2.705.58 4.427-.165.655-1.577 1.147-2.822 3.115-1.41.164-1.909-.328-3.154.082-1.08.327-1.66.901-2.324 1.393-1.411.902-3.819 1.721-5.562 2.05.166-1.312.581-1.23.332-2.542-.249-1.393-.415-1.23-.249-2.705.415-2.623-2.324-3.607-4.068-5.574-1.577-1.721 0-2.951-3.07-3.689-3.487-.82-2.574-2.213-8.219-1.885-2.49.164-3.154-1.23-5.728 0-1.992.984-3.403-1.066-5.23 1.475-.995 1.312-1.327 2.951-2.407 4.181-2.24 2.623-.913 1.312-2.075 4.099l-4.067 9.345c-3.32 6.148-5.728 12.214-8.052 18.525-.83 2.296-.664 3.115-2.408 4.181zm25.07-40.167c.332-1.147.165-1.147 1.328-1.311.747-.164 1.162-.082 1.826.246-.747 1.475-1.66 2.377-2.407 4.016-.83 1.722-1.08 2.87-2.574 3.525-.83-2.705.415-2.05.581-4.344-1.162.491-1.245 1.803-2.075 2.869-.498-.984.664-2.378.996-3.28.747-1.885.166-1.72 1.743-2.868l.581 1.147zM21.69 6.004c-.25-.41-.25.41-.25-.738 0-.082.084-.492.167-.574l2.324-2.869.25 1.23c.746-.82.331-.984 1.41-.902-.083 1.23-1.328 2.705-2.158 3.28-.332-.41-.166-.575-.747-.902l-.996 1.475zm9.463 3.36c.498-.081-.083-.819-.166 0-.083.575.166 0 .166 0zm4.067-5.41c-.664.984-1.162 2.296-1.245 3.034l.913-1.476c.913-2.131.415-1.557.332-1.557zm-5.478 6.558c-.664-1.23 1.577-4.426 2.324-5.41 1.411-1.885 1.245-4.098 4.4-3.443-.25 1.312-.581 1.066-.997 2.214.748-.492.997-.738 1.744-1.066.415.738.498 1.312.249 2.05.58-.574.747-1.722 1.577-1.804-.332 1.967-3.902 6.148-4.483 7.05-.498.82-.747 1.557-1.66 1.721.166-1.885 1.245-3.525 1.08-4.754-.333.246-.416 0-.83 1.147l-1.08 2.295c-.747 1.23.083.574-1.245.82l.249-1.557c-.664.246-.747.574-1.328.737zm5.644 2.05c.664-1.722 1.329-3.443 2.325-5.164.996-1.64 1.66-3.525 2.74-4.59 1.161.163 1.327.409 1.825 1.147-.332 1.393-1.41 1.23-2.822 4.098-.25.492-.747 1.886-1.162 2.214-.581.492-1.826-.328-1.91.983-.083 1.148.665.41 1.163 1.312.166.328.415 1.23.332 1.475-.581.082-2.159-1.065-2.49-1.475zm43.58 8.689c-1.41-.574-1.161-1.148-1.66-2.377-1.162-2.623-6.391-8.771-8.217-10.493-1.412-1.23-2.74-1.967-3.819-3.279.664-.082 4.15 2.132 4.815 2.623 3.486 2.624 8.3 8.772 8.882 13.526zm-39.595-5.902c.498-1.476 3.32-7.378 4.233-8.033.333.737-1.162 3.196-1.743 4.016-1.494 2.213-1.328 3.443-2.49 4.017zm-.25-3.197c0-1.23.167-1.803.665-2.705.332-.656.664-1.312 1.162-1.885.664.41.166-.082.664.573-.415.984-1.743 3.28-2.49 4.017zM74.32 7.316c2.159-.902 7.305 5.41 4.317 7.541-1.162-.246-2.408-2.131-2.989-3.279-.58-1.147-1.743-2.869-1.328-4.262zm-45.49.082c.167-.164-.082.164.25-.41l.664-1.312c.58-.902 2.656-4.18 3.403-4.508-.249 1.065-1.411 3.197-1.91 4.344-.663 1.476-1.41 2.787-2.24 3.935.249-.82.415-.82.58-1.722l-.58-.163s-.083 0-.083-.082-.083-.082-.083-.082zm17.93 3.442c-3.652 5.575-1.825 4.017-4.565 4.755l-.58.164s-.25.574-.582-.164c-.332-.656.996-3.525 1.245-4.099.498-.984 1.328-2.705 2.242-3.033-.084 1.804-2.159 3.607-1.66 4.755.746-.082.331.246.913-.738.248-.574 1.162-2.295 2.075-2.46l.913.82zm20.587 25.166c-.166-.574-.498-.41-.83-1.557-.166-.656-.249-1.312-.498-1.968-1.411-3.934-.415-11.066-1.66-13.115-.664-1.23-1.494-1.148-2.241-2.706a16.08 16.08 0 01-1.245-3.852c.996.41.747.738 1.41.656.333-.492.084-1.066 0-1.558 1.163.328.333.902 1.66 1.476.25-.41.084 0 .167-.574.083-.984 0 .328 0-.41 0-.328-.166-.246-.166-.984 1.245.328.332.656 1.494 1.476l.25-.82c0-.082.082-.328.082-.41l.083-.328c3.487 2.295 1.577 6.476 2.407 10.739.83 4.016 1.66 7.541 1.246 11.968-.748-.902-.083-.82-1.162-.902-.167 2.05.663 2.787.082 5.656-.332 1.558-.332 1.148-.913 2.296-.747 1.23 1.08 1.639-.664 2.049l-1.909-.164c-.747-1.476 3.487-3.689 2.407-6.968zm.581-23.198c.083-.082-.332-.492.664-.164.582.164.084.164.166.328l.582.82c-.913-.082-.996-.165-1.412-.984zM19.532 7.316c1.163-.574 5.313 1.64 6.558 2.295 1.08.574 2.242.901 3.404 1.311 5.063 2.05 9.13 4.755 12.036 5.984.996.41 1.992.82 2.905 1.476-.913.328-1.328.738-1.909.984l-6.807-3.853c0-.082-.083-.164-.083-.246-.415-.574-5.063-2.705-5.727-2.705.249.738.166.328.913.984l-1.328-.574c.664-1.148.996-.246-.166-.984-.498-.246-.913-.41-1.328-.656-.914-.492-1.827-.738-2.823-1.147-1.411-.41-4.731-1.886-5.645-2.87zm25.65 9.918c0-1.065.83-3.689 1.744-4.098 0 .737-1.08 3.689-1.743 4.098zM5.92 42.482c.415-1.066 1.577-1.721 2.905-2.295 2.158-.902 14.112-8.525 15.938-9.181 2.573-1.066.25.246 3.154-1.804L40.7 21.661c.664-.328.747-.574 1.411-.984 5.064-2.95 4.898-1.885 8.965-3.607.913-.41.913-.328 1.91-.573 1.41-.328 3.735-1.968 5.644-1.558-.415.738.498.328-.996.738l-2.74.901c-3.403 1.394-9.213 2.87-12.534 5.083l-4.648 2.787c-6.807 3.689-12.286 7.132-19.01 10.902-2.324 1.312-4.15 2.378-6.474 3.69-1.578.9-4.649 3.278-6.31 3.442zm21.748-26.067s.83-.738.166-.41c-.498.246-.165.41-.165.41zm.415-.656c.333-.574.914-1.804 1.329-2.05-.83 2.706-2.574 4.427-1.827 5.41.665-.327.416 0 1.163-1.475.249-.492.415-.901.747-1.311-1.328 2.787-5.977 13.69-7.554 15.41-.581.656-3.819 2.378-5.147 2.378.581-2.623 3.238-8.771 4.566-10.575.747-1.065.664-.574 1.66-2.295l4.15-6.968c-.747 2.787-8.218 15.903-7.139 17.379.997-.246.333.245 1.246-2.132.332-.901.498-1.393.913-2.295.664-1.476 1.328-2.951 1.992-4.345l4.068-8.279c.249-.328.083-.164.415-.41-.415.656-.498.738-.582 1.558zm.333 11.968c.498-1.803 2.656-5.328 3.486-6.886.415-.656 1.494-3.443 1.826-3.689h.996s.083 0 .083.082l1.329 1.23c-.166 1.394-2.076 4.836-2.74 5.82-.83 1.23-3.984 3.36-4.98 3.443zm-3.487.656c2.158-3.197 2.988-7.46 5.728-10.493-2.158 6.476-1.992 3.935-4.15 8.361-.582 1.476-.83 2.05-1.578 2.132zm45.573-5.492c-.996-.492-.747-.328-.996-1.722-.083-.656-.332-1.476-.332-2.213-.083-1.804.166-2.951 1.079-4.017 2.822.164 2.739 2.213 3.403 4.509-.747.573-.664-.246-1.328.573l-.25.574c-.165.492 0 .082-.165.574-.25.492-.415.656-.664.984-.747.901.166.164-.747.738zm-33.121-.164c.166-.492.664-1.312 1.079-1.886.664-1.148.415-1.23 1.66-1.475-.249 1.475-1.91 3.033-2.74 3.36zm34.615 2.295c-.83-.984-.996-1.148.664-1.476l-.664 1.476zm-30.63 1.23c-.582-.902-.416-.82.165-1.804.498-.902.166-.984 1.162-1.148.166.82-.249 1.804-.664 2.377-.415.41-.166.165-.664.574zm-9.464 20c-.083-1.885 5.562-12.377 6.226-14.836.249-.984 1.577-4.099 2.324-4.509.332 3.361-3.32 7.46-5.064 12.706-.664 2.05-.664.492-1.41 2.05-.83 1.557-1.412 3.032-2.076 4.59zM9.737 35.269c-.58-1.065.996-3.852 1.578-4.672.165 1.393-.914 2.705-1.578 4.672zm16.685-2.459c.664-1.393.25-1.23 1.66-1.967 2.574-1.394 3.238-.41 1.91 2.131-1.08 2.213-3.238 9.591-5.645 12.296-.913.984-2.49 2.46-4.649 2.213l6.724-14.673zm-14.028-9.427l4.648-10.164c.498-1.476.664-2.787 2.324-2.623.332 1.639-.664 3.688-1.328 5-.415.738-.415 1.475-.83 2.377-.415.902-.83 1.312-1.162 2.05-1.08 2.459-2.656 6.64-3.901 8.77-.166 1.804-.083 1.066-1.412 1.558l-.083-.082c-.249.656-.498 1.066-.747 1.721-.415.984-.332 1.066-1.079 1.722l.581-1.64c.332-.901.166-.983.166-1.065-.166-.738.415-1.722.664-2.541l2.159-5.083zm4.731.41c.166-.164 1.66-2.541 1.577-3.36-.166-1.476.747 1.065-.166-.41-.332.901-1.66 3.196-1.41 3.77zm-5.562 9.263c.499-1.148.914-2.213 1.412-3.36l2.822-6.477c.83-2.54 2.988-7.295 4.483-9.59l1.41-2.296c.333-.492-.082-.164.499-.492.58.738 0 1.476-.498 2.46-.415.82-.664 1.311-.913 2.295-.747 2.213-1.744 3.607-1.827 4.59.581-.327.747-.82 1.246-1.721.747-1.476 1.909-4.836 2.988-5.41-.498 1.557-1.328 3.033-1.328 3.197-.166.573-.083.082-.083.491 0 .656-.083.082.166.492.913-.328.58-.41.996-1.475.498.82-1.328 3.525-1.743 4.344-.415.82-.664 1.312-.996 2.214-.415 1.393-1.578 3.197-2.159 4.426-.664 1.23-2.241 7.05-2.822 6.968l-.25-.328c.582-.902 1.33-2.541 1.578-3.77-1.411.655-.332.163-1.577 1.885-.581.901-.664.82-1.162 2.049-.415.984-1.328 3.689-2.242 3.935l1.827-4.099c-1.992.164-1.578 1.721-2.657 3.197l.83-3.525zm28.888 8.28c2.407-1.23-1.08-2.132-.166-4.919.581-1.721.581-.574.166-2.46-.332-1.557.664-3.77 1.577-4.672 1.411-1.311 1.162-2.377 2.574-3.852 1.494-1.64 1.162-3.115 4.731-5.165 2.49-1.393 7.554-2.623 9.961-.737 2.159 1.721 1.827 2.869 1.329 4.098 3.237 1.394 2.573 2.623 2.573 2.623.166 1.148 1.66 2.378.58 4.099-.746 1.23-1.576.656-1.825 1.803.747.328 1.577-.163 2.158-.41 2.241 2.378-.581 3.034-1.494 4.263 2.407.41 1.909-1.311 3.818 1.312-.747.41-.415 1.065-1.245 1.885-.747.656-.913.984-1.494 1.64-1.66-1.066-1.826-.328-1.743-2.214l-.83-.082c.249-.246 0 .082.332-.41l.498-.983c.249-.41.083-.082.415-.574.332-.492.166-.082.332-.656-.996.164-1.245.492-1.91 1.312-.497.574-.83.82-1.494 1.311.664-.655.581-1.557.332-2.787-.996 0-.58.082-1.162.656-.747.902.083.246-.996.82.332-1.066-.332-1.23-.083-2.295.747-2.46.166-.165 0-2.132 1.91-.328 3.154.902 3.57-1.311-3.32-.164-7.471.164-10.21-3.607-.83-1.148-.748-1.804-2.325-1.804.083.902.083.164.747.902.332.328.498.738.664 1.066.415.901.747 1.64 1.411 2.295 1.91 2.131.83 1.066 1.329 2.295.498 1.23 1.494.574 2.075 1.64.664 1.557-.498 1.803-.166 2.95 1.494-.245 0-.655 1.743-.901 0 .082.083.164.083.164l.664 1.558c-1.328 1.72-2.49 2.377-2.74 3.196.748.492 1.66.164 2.574 0-.581 2.951-.996 2.623-1.743 3.197-.747.656-1.577 1.804-2.74 2.05.665-.41 1.08-1.23 1.329-2.05-1.494.41-3.238 2.378-5.064 1.066.498-.984 1.992-.738 2.075-2.131-1.41-.246-.996.82-2.407 1.065-1.08.246-2.158-.082-2.988-.328-.332-.901.083-1.065-.166-1.557-.748.574-.498 1.148-1.827.82-.498-.984.083-.902.415-2.214-.747.246-.747.656-1.826 1.722l-3.154-2.131c-.664-.984-.747-3.033-.083-4.017.83 2.46.83 4.017 1.826 4.59zm-24.986 2.868s.083 0 0 0c.498-.164-.166-.983-.249 0 0 .574.249 0 .249 0zm3.819-6.475c-.25.41-.084.163-.167.573.332-.492.332-.328.498-.983-.165.246-.082.082-.331.41zm1.66-2.46c.166.574-.083.41 0 .738.166.738-.083 0 .332.328-.083 2.705-1.744 3.197-1.744 5.164.498-.246.582-.573.914-1.311.332-.656.332-.902.747-1.312-.415.82-.913 2.132-1.329 2.87-.248.491-.166.163-.415.081l-.083-.082c-.913-.082-.913 2.132-.996 2.46-.083.245-.664.655-.83.983-.664.902-.58 1.803-1.41 2.377l.414-1.721c-.747.246-.581.82-1.245.984-1.08-.82-.083-.984 0-2.378-.581.41-.581.738-.913 1.23.166-.902.415-1.64.747-2.377.166-.328.332-.656.249-.984-.083-.656 0 .082-.166-.492-.913-2.459.249 1.558-.166-.574l1.411-2.787c-.747.328-2.158 4.18-2.905 5.083-.415.573-.083.246-.581.573-.25-1.311.166-1.803.747-3.197.415-.983.83-1.885 1.494-2.459.664-.656 4.068-2.623 5.064-2.95l-.582 1.885 1.246-2.132zm15.938 5.165c.415.737.498-.082.747 1.557-.913-.328-.913-.41-.747-1.557zM7.413 43.466c.332-.902.498-.82 1.66-1.394-.083.492-.249 1.312-.747 1.64-.581.327.166.082-.415-.082l-.498-.164zm-3.652-.656c-.083.082.166.082.166.164 0 .246 0-.328-.166-.164zm-.166-.164c.415.082.996.41 1.245.656 2.075 1.721.166.328 2.988 1.721.664.328 1.08.41 1.743.738.747.41.581.574 1.411.82 4.068 1.557 7.471 3.115 11.954 4.59 1.411.41 2.075.82 3.32 1.394 1.162.574 2.408.901 3.487 1.393l-.664 1.23c-2.906-.656-4.815-1.394-7.305-2.377L8.492 46.745c-.415-.164-1.162-.656-1.494-.984-.581-.492-.581-.82-1.245-1.23-1.577-.983-1.494.082-2.158-1.885zm5.395.574c1.411-2.705.664-2.213 2.822-3.115-.082.164-.165.656-.165.738l-1.495 2.705c-.664 1.23-.498.737-.83.983.25-.737.25-.492.415-1.393-.747.246-.415.328-.747.082zm55.285 2.213c-.332-.492-.581-.82-.913-1.312.498.164 1.079.492 1.743.656.415.082.83.082 1.162.164.581.082.415.082.747.328-.747.738-1.494.328-2.739.164zm-27.725-.082c0-.984.332-1.312 1.41-1.393-.082.983-.331 1.393-1.41 1.393zm1.992-.164c.083-.656.996-.41 1.411-.246-.415.574-.498.656-1.411.246zm3.071.492c.498-.328.25-.41 1.826-.246l-.498.902-1.328-.656zm-40.26 7.46c-.166-2.214 1.411-6.149 2.408-7.542l-1.163 3.607c1.412-.574.25 0 1.246-1.394.249-.41.166-.164.415-.492-.166 1.394-.498 2.296-.914 3.69-1.245 3.688 0 2.95-1.328 3.442-.166-.738-.083-1.066.083-1.967.166-1.066.332-1.066 0-1.476l-.747 2.132zm31.793-4.181c.083-.902.996-4.099 1.826-4.837.166 1.804.332 1.64-.498 2.951-.415.574-1.162 1.476-1.328 1.886zm11.373-2.05c.249-.655.747-1.065.996-1.557.664.656.498.41.249 1.394-.25 1.065.083.737-.913 1.147l-.332-.984zm11.206-1.065c-.166 1.147-.498 1.393-.996 2.131-.581.902-.415 1.066-1.91 1.148l-.747-.984 3.653-2.295zM35.968 60.106c-.415-1.64.83-4.426 1.08-6.558.58-4.672.747-3.36.996-5.082.249-1.312-.083-.574-.083-1.803l1.66-.246c.083 1.64-.747 1.721-.581 3.524.083 1.476-.747 9.427-3.072 10.165zM21.442 49.204c.083-1.066.249-1.394 1.162-1.558l-1.162 1.558zm-14.195 1.64c.996 1.147.498 1.803 0 3.442-.498 1.394-.83 2.541-2.407 2.295-1.08-2.295-.083-3.607.58-6.721.333-1.394.333-.902 1.163-1.394.083 1.885-1.494 2.05-.25 3.279.333-1.394 1.163-2.787 1.744-3.935l-.83 3.033zm40.01-3.526c2.408.164 3.902 2.623 3.072 3.525-.996 1.066-3.57-2.295-3.652-2.295l.58-1.23zm-21.582 1.394c0-1.967 4.98-11.476 6.226-14.181 1.162-2.623 2.988-8.444 4.815-8.526 2.075-.081-.498 2.296-1.08 4.755.997-.328.498-.246 1.495-2.295.415-.82.83-1.804 1.494-2.132.747 1.886-3.487 10.001-4.566 12.132l-5.312 11.558c-.415-1.065 4.897-11.394 4.4-13.607-.748.246-.748.492-1.08 1.312-.581 1.639-4.067 10.738-4.98 11.476.497-1.476.747-3.115 1.577-5.083 1.41-3.36 5.976-11.886 6.06-13.28-1.329.247-1.163.493-1.744 1.886l-5.312 11.395c-.997 2.13-1.412 3.524-1.993 4.59zM9.903 55.106c1.245-.902 1.245-5 3.155-5.165-.083 1.968-1.993 5.083-1.91 6.476 1.495-.245 1.578-1.885 2.325-3.033-.166.574-.166.492-.415 1.066-.913 2.213 1.079 1.721-.913 4.509.083-1.23 0-.82-.665-.984-.165.328-.165.41-.248.656-.333.737-1.08.901-1.993 1.065-.249-2.213.25-1.557.415-2.705v-.328c0-.573.083-.164-.166-.491-.083.082-.083.082-.083.163l-.58 1.394c-.333.82-.333 1.066-.997 1.312-.415-.82 0-.164 0-.984.083-.82-.664-1.394.581-4.18.415-.903.83-1.722 1.08-2.624.331-.902.497-2.131 1.244-2.623.913.492.996.492-.083 3.033-.166.738-1.162 2.705-.747 3.443zM35.138 57.4c-.166 2.05-1.577 2.541.083 4.427.665.737.25.655 1.08.983 1.494-3.443 2.075-1.475 3.07-7.87.25-1.475.582-1.885.831-3.114.25-1.148.083-2.213.83-2.87 1.577-1.229 3.653.657 4.068.903.415.245 1.079.491 1.245.737.747.656.249 1.886 1.245 2.623.498-.737-.25-.901.332-1.639 1.162 1.23 1.743 2.951 1.577 5.41-.083 1.23-1.245 4.263-2.158 5.246.166-3.114 1.245-5.738.747-6.557-.913.492-.581.82-1.08 1.64-.082-1.066-.082-4.181-1.493-2.952-1.827 1.558 2.573 3.115.249 10.329l-3.57 8.935c-1.079 3.033-2.407 5.984-3.652 8.935-.747 1.721-1.494 1.885-2.158 4.017-.581 1.72-1.578 2.377-2.657 3.688-2.656.082-4.316-1.065-5.478-2.295-.332-.328-1.66-1.721-1.744-2.131-.083-.246-.083-2.951 0-3.361 2.076.492 1.66 4.59 3.57 4.754 3.071.246-.83-4.016-.996-5.328.996-.492 1.992-.246 2.407-1.558-.498-.573-.166-.327-.913-.655-.415-.164-2.324-.574-1.08-2.787l1.412-1.558c1.992-1.721 3.154-.41 3.32-2.541-.747-.574-1.909-.984-2.407-1.721-1.66-2.706.498-5.657.913-6.722.581-1.394-.249-2.05-.581-3.197-1.411-4.345-.415-6.64 1.577-10.083.498-.82.996-1.885 1.992-2.295.084 1.475-.913 3.36-1.41 4.59-.997 2.623-.914 2.46.83 4.017zm-.249-1.803c-.083-.902.747-3.115 1.08-3.935.331.41.415-.656.415 1.148 0 .491-.166.983-.333 1.311-.332 1.23-.083 1.64-1.162 1.476zm-19.756 1.721c.996-.656.996-2.05 1.992-3.279l.498-.574c-.249 1.476-.996 2.541-1.328 3.853.913-.328.25.328.913-.738.25-.41.747-2.377 2.076-2.95-.084 1.393-1.08 1.967-1.412 4.098-.249 1.312-1.162 2.787-1.66 3.935l-2.241-.738c.166-2.131.83-6.148 2.49-7.87l.166-.163.166-.164c-.332 1.557-.83 2.13-1.411 3.443-.166.41-.25.082-.166.983-.166 0-.083.082-.083.164zm1.992 4.099c.166-1.23 1.08-2.541 1.66-3.525.581-.984.997-2.705 1.578-3.77.58.983-1.163 4.344-1.827 5.737-.498.984-.415 1.148-1.41 1.558zm2.823.574c-.665-.82.166-3.197.664-4.1.83-1.639.58-3.032 2.407-3.36-.415 1.312-2.573 6.804-3.071 7.46zm5.312 0l.996-2.46c.581-1.147 0-.327.664-.737.083.573 0 2.787-1.66 3.197zm23.907 1.721c.498-.328.083.082.415-.41l.581-1.393c.25-.492.166-.328.581-.574-.747 4.672-3.237 3.525-2.656 4.754.166.41.415.41 1.08.492 1.825.41 2.739.246 2.655 1.476-2.49-.492-2.905-.328-4.565-1.804l2.573-6.066c-.166 2.623-1.328 2.295-.664 3.525zm-25.9-1.885c-.414-.574-.165-.164.25-1.886.166-.737.415-1.393.415-2.05-.664.985-1.08 3.28-1.577 3.854-.332.491 0 .164-.498.41.498-1.886.996-1.476.332-2.214l-1.08 2.377a1.178 1.178 0 01-.165-.245l-.083-.738c.083-.41.249-.82.415-1.066 1.66-3.279.747-1.475 2.241-3.197.747-.901.083-1.066 1.245-1.64l-.664 1.394c1.245-.246.415-.082 1.328-.573-.249.573-.415.573-.58 1.23-.167.655-.084.983-.333 1.639l-.83 2.049c-.166.246-.249.41-.415.656zm22.829 6.148c1.328.246 4.233 1.557 5.146 2.295 1.245.983 3.238 2.213 2.325 4.754 2.822 3.28.747 2.05 2.324 5.328 1.992 4.263 1.328 3.116.249 5.165l-2.158.164c-.913.246-.415.164-.747.41 1.328.655 2.988.082 3.735.492-.332 1.147-1.08.655-2.573.82-.996.081-1.992.245-3.072.327-2.407.246-4.233 1.148-4.897-1.475 1.411.41 1.162.655 2.988.573-.166-1.557-1.079-1.23-2.822-2.459-1.328-.901-1.577-1.721-3.072-2.213.498-.82.498-.082.665-1.312-2.823-1.64-1.08-2.869-.499-4.016l.83-1.64c.748-2.295-1.577-2.05 1.578-7.213zM26.422 88.305c1.08.164 1.993 1.147 2.574 1.967-1.328.082-1.91-.901-2.574-1.967zm-1.162.984c1.245.573 2.49 1.639 3.57 2.049.747.246 1.41.246 1.909.738.498.492-.166.246 1.079.983.083 0 .166.082.166.082l.332.246c-.415.328-.332.246-.664.574 0 0-.083.082-.083.164-.913.902-1.66.492-3.154-.41-1.578-.902-.332-.328-.25-2.131-.746-.246-1.245-.328-1.826-.738-.83-.656-.664-.738-1.079-1.557zm24.24.491c1.078.246.331.246.995.41 2.076.492-.498.082 2.076-.41 1.743-.328 1.992-1.065 3.486-.163.996.573.249.737.83 1.557-1.494 1.475-5.81.656-7.72-.164l.332-1.23zm-25.734 1.886c.498.164.249-.082.83.328.747.492.25.082.498.656-1.245-.328-.83-.41-1.328-.984zm21.417 22.378c-3.57.656-8.55-.082-10.21.164-1.993.328-.084.738-4.483.82-3.902.082-4.234 1.967-5.147-.246-1.66-4.098 3.072-14.919 4.98-18.772 3.82-.082 1.661-1.393 4.65-4.672 1.826-1.967 2.24-3.361 3.735-5.574.747-1.148 1.079-3.28 1.91-4.345.497 1.148-.416.41 1.576 2.951.664.902.581.328 1.245.984.581.574.333 1.393 2.574 3.36 1.41 1.23.083.82 2.075 3.034.249.246.083.082.332.41-2.158 2.54-2.324 7.46-1.826 10.82.664 3.689 0 7.951-1.411 11.066zm5.644-10.492c.996 0 1.163-.246 1.827-.492-.25 1.967-1.495 3.935-1.329 5.656 1.08.082.415-.082 1.328-.656 0 3.279-.497 3.607.582 5.657 1.328 2.459.913 1.557 3.071 3.033 2.573 1.721 4.732 1.639 6.724 2.705 2.241 1.229 1.66 0 1.826 1.475-.996.738-3.403.41-4.98.41-1.66 0-2.823-.656-4.4-1.066-3.57-.737-6.973 1.394-9.38-.655-.415-2.706.332-3.115.913-5.411 1.328-4.918.58-6.148.996-8.607.332-2.049.83-.82 1.245-2.049.332-1.148-.498-1.476-.996-2.213-1.162-1.886-.166-6.066 1.494-7.788 1.162-1.311 3.902-.738 4.483.492.664 1.475-1.328 5.656-2.159 6.968-.83 1.393-1.245.983-1.245 2.541zm-27.393 3.525l1.328.246c.083 2.623-2.324 1.803-.996 5.328 2.241 5.984 3.32 5.164 7.056 7.541.913.574 1.162.902 2.158 1.558.83.492 1.66 1.147 1.992 1.639-.83.738-3.071 1.886-4.814.246l-.166-.164c-3.985.574-3.57-.655-6.973-1.393-2.74-.574-5.562-.082-6.06-2.869-.332-1.476 1.743-4.919 2.325-6.312 1.992-4.755-.416-6.968 2.739-15.001.747-1.804 2.656-4.345 5.23-3.033 1.245.656 1.494 1.475.58 2.869-1.162 1.721-.498 1.721-1.245 3.197-1.245 2.869-3.154 4.508-3.154 6.148zm10.625 9.591l-1.494-.246c.664-.656 1.08-.82 2.075-.738l-.58.984zm2.574-1.148c.498-.41.996-.492 1.743-.328.498.164.332.164.498.328-.664.41-1.494.41-2.241 0zm7.055 1.967c-.83.574-2.988.246-3.984 0 .249-.246.083-.328.83-.492h2.407c1.411.246.332.082.747.492zm-12.119 2.214c3.237-1.804 5.728-.164 8.882-1.23.83-.246 2.241-.246 3.237-.246.581 1.312.332 1.639 1.329 2.377l-.748.738c6.392.984 8.053-.082 12.867.738l3.154.246c1.329.328.416-.082.83.492-.248.163.167.081-.663.245-.416.082-.333.082-.748.082l-5.23-.164c-2.573 0-3.735.41-6.059.738-4.732.656-8.384.574-13.199.656.333-.41.166-.246.582-.574 2.24-1.393 12.285-.246 14.111-1.557-.083 0-.083-.082-.166-.082l-.249-.082c-1.66-.328-13.614.819-14.776.164 0 0-1.079-.738-.83-.984 2.075-1.475 6.89.246 8.716-.82l-8.55-.41c-.996.328-1.826.41-2.49-.327zm34.615 3.606c1.08-.164 3.155.738 2.49 1.968-.913-.246-.498-.41-1.328-.984-.498-.41-.166-.082-.747-.574-.498-.574-.083-.328-.415-.41zm-2.075.41c1.743.082 2.74.574 2.324 2.295-1.909-.655-.664-1.475-2.324-2.295zm-56.28 2.459c-1.744-1.475.497-1.721 1.244-2.377.996-.82.25-1.147 1.577-1.639-.332 1.475-.58 1.311-1.577 1.967-.498.328-1.162.984-1.245 2.049zm10.375-1.967c-.083.082-.083 1.148-2.573.164.747-.492 1.743-.328 2.573-.164zm3.32-.164l5.23.164c-.664.574 1.162.656-2.656.41l-1.992-.246c-.415-.164-.415-.246-.581-.328zM9.406 126.75c-.664-1.147.664-1.721 1.328-2.213-.083.984 0 .492-.58 1.148-.333.409-.333.491-.748 1.065zm9.048-1.311c2.823-.246 6.807-.246 9.547.082 1.909.246 1.162 1.065 3.984.491 7.222-1.393 11.29-.573 18.677-1.639 1.08-.164 2.906-.492 3.985-.082.415.164.332.164.498.246-1.162.902-7.388 2.295-7.97 2.377-1.66.164-3.32-.082-4.897-.246-3.403-.246-12.534.902-15.108-.082-5.644-2.049-3.071-.246-8.716-1.147zm-6.806 3.033c-1.827-1.886.83-4.427 1.328-4.509 1.079-.082.498 1.722 0 2.213-1.162 1.23-.498-.245-1.162 1.804l-.167.492zm45.323-3.033c2.573-.41 1.08 1.229 3.071 1.065 0-.737-.249-.819-.498-1.393 2.242-.246 2.076.738 2.657 2.377 1.577 4.181-1.578 3.115-3.155 3.443-2.656.656-1.328-.492-2.656-.41-.913 0-.332.656-1.328 1.066-1.66.737-1.66-.492-1.91-.902-1.992-.164-1.41.328-1.992 1.23-1.66-.082-1.992-1.23-3.818 0-2.241 1.475-1.826-.328-3.32 2.049-.997 0-1.495-.082-2.325-.164-1.162-.082-1.079.246-2.241 0-4.068-.82-1.162.082-4.317-.164a25.884 25.884 0 01-2.49-.328c-1.826-.328-3.486.984-4.4-1.639l-.415-1.148c-1.66.656-1.245 1.639-3.486 1.639-1.577 0-3.32-.491-4.732-.655-6.89-.902-7.636-6.722-2.158-5.411-.249 2.214-1.162.492-1.328 2.296 1.66 1.393 1.577-.902 3.735-1.23-.166 1.148-1.079 1.23-.913 2.377.747.246.498.164 1.495.164.58-1.147.415-1.721 1.826-2.131 1.162-.328 2.324-.082 3.486.246 3.32.738 11.705.492 15.274.246 1.66-.082 4.566.164 4.815 2.049v.82c2.324.41 0-1.804 2.241-2.623a38.505 38.505 0 014.316-1.558c4.898-1.639 5.147 3.279 7.14 3.853l.83-1.64c-1.163-1.885-1.827-2.213-3.404-3.524zm-.747-98.122c.747.492.664.082 1.91.082.746 0 1.244.164 1.991.246 2.076.246 3.238 0 2.657-1.968-1.162-.245-1.66.41-3.32.492-.997.082-1.744.246-2.657.82-.415.164-.415.164-.581.328zM50.91 39.531c-.083-1.148-.415-.656-.664-1.721-.332-1.23-1.162-5-1.826-5.903-.498.738-.166 1.148 0 1.968.498 2.295.498 5.41 2.49 5.656zm-32.042 79.104c1.246-.41.25-.492.25-1.64 0-.983.664-.983.664-2.131-1.66.246-1.412 2.377-.914 3.771zm30.216-1.885c-.083-.984-.581-.902-.498-1.886 0-1.639.913-.738.083-1.803-.747.492-.415-.164-.664 1.065-.083.328-.083.902-.083 1.148.249 1.148.747 1.312 1.162 1.476zm3.072-.738c.664-.328.498-.328.248-.984-.248.328-.083-.41-.332.574-.166.492 0 .246.084.41zm10.376 9.345c.664.328.83.41.83 1.311-.498-.164-.166.246-.581-.41-.166-.409-.083-.491-.25-.901z" fill="#9D7C29"/></svg>