<svg width="451" height="174" fill="none" xmlns="http://www.w3.org/2000/svg"><path d="M337.042 74.051c0 .203-.201.203-.201 0-.604-5.058-.604-10.116-.604-15.174 0-4.856.604-9.712 0-14.568 0-.202.201-.202.201 0 1.007 4.654.604 9.307.604 13.96.201 5.261.403 10.522 0 15.782zm-17.114-3.44c-4.228-8.092-5.839-17.197-9.664-25.695 0 0 0-.202.201 0 2.416 3.845 3.624 8.093 5.034 12.342 1.409 4.451 3.02 8.902 4.429 13.354.201 0 .201 0 0 0zm24.564 5.059c-.806-.405-2.215 0-3.021-.405a3.148 3.148 0 01-1.208-1.618v-3.845c.403-4.856.806-9.711.806-14.567 0-2.63 0-5.463.201-8.093 0-1.214.604-1.821 1.611-2.226.403-.202.805-.202 1.208-.202.403 0 .604-.405.604-.607v-2.023c0-.405-.201-.607-.604-.607H330.8c-.805 0-1.409.404-1.61 1.214-.403 1.618-1.007 3.237-1.41 4.855-1.208 5.463-3.02 10.724-4.832 15.984 0 .203-.201.607-.402.81 0 .202-.403.202-.604.202-.202-.607-.605-1.214-.806-1.821-.805-2.63-1.611-5.058-2.416-7.688-1.208-4.047-2.617-7.891-4.027-11.735 0-.203-.201-.607-.604-.81-.402 0-.805-.202-1.006 0-4.229 0-8.457.203-12.685.203-.201 0-.604 0-.604.202v1.821c0 .202.202.405.403.405 1.007.202 2.013.202 2.819 1.416.201.405.402 1.012.402 1.619v1.416c-.201 5.26-.201 10.318-.402 15.377v9.306c0 .81-.202 1.417-.403 2.024s-1.409.607-2.215.607c-.402 0-.604.202-.604.607 0 .607 0 1.416-.201 1.82.201.405.604.203 1.007.203h.805c3.221-.202 6.443-.202 9.664-.405.403 0 .403-2.428.202-2.428-.604-.202-3.826-.202-4.027-.607-.202-.809-.403-1.82-.403-2.832V71.42v-9.105c0-1.011 0-1.82.201-2.832.202-3.44.403-6.677.604-10.319 0 0 .604-.202.604.203.806 2.023 1.813 4.248 2.417 6.474 1.208 3.44 2.013 6.879 3.221 10.319 1.208 4.046 2.416 7.89 3.624 11.937.403 1.011.805 1.416 2.013 1.416h.806c.604 0 1.208-.202 1.409-.81.403-1.213.806-2.225 1.007-3.439.805-3.035 1.611-5.867 2.617-8.7 1.41-3.642 2.618-7.284 3.423-11.128.604-2.225 1.208-4.653 1.812-6.879.201-.404.403-.81.403-1.011h.201l.201.202v2.63c-.201 7.082-.402 13.96-.604 21.042v4.046c0 1.012-2.013 1.214-3.221 1.214-.403 0-.604.203-.604.607v1.417c0 .404.201.607.604.607h15.906c.403 0 .805-.405.805-1.012.604-1.416.604-2.428.202-2.63zm-57.584-1.416c-2.013-5.059-3.825-10.32-6.04-15.175-2.013-4.451-3.02-9.307-4.832-13.96 0 0 .201-.203.201 0 2.417 4.45 3.625 9.711 5.638 14.567a125.726 125.726 0 015.235 14.568c.201.202-.202.202-.202 0zm-9.261-11.533c-2.618.405-5.034.202-7.651-.405-.201 0-.201-.202-.403-.404v-.203c1.007-3.844 2.416-7.486 3.826-11.33 0-.202.402-.202.805-.404 1.409 4.046 2.215 8.093 3.423 12.139.201.202.201.405 0 .607zm16.912 12.949c-.201-.203-.604-.203-.805-.405-1.409-.404-2.416-1.416-2.819-2.832-1.208-3.035-2.416-6.07-3.422-9.105-1.007-3.035-2.014-6.272-3.021-9.307-1.409-3.642-2.818-7.486-4.228-11.128-.201-.405-.201-1.012-.805-1.214-2.416-.404-6.242-.404-8.859 0-.201 0-.604.202-.604.405-.201.404-.201.81.201 1.214.403.404.806.607 1.208 1.011.604.607 1.007 1.214.604 2.024-.201.607-.402 1.214-.604 1.618-1.409 5.058-3.221 9.914-5.234 14.972-1.208 3.035-2.014 6.07-3.222 8.903-.805 1.82-1.611 4.45-3.423 4.248-.604.203-.604 1.012-.402 1.62 0 .404.402.808 1.006.808h9.061s.201 0 .402-.202c.202-.405.202-.81.403-1.416 0-.405-.201-.81-.604-.81-.604 0-1.409 0-2.013-.202-.806 0-1.208-.607-1.41-1.416V73.04c.202-.81.403-1.821.604-2.63.403-1.215.604-2.63 1.611-3.642 1.812-.608 3.624-.608 5.436-.608 1.611 0 3.423.203 5.034.203.604 0 1.006.202 1.208.81.604 1.82 1.208 3.843 1.812 5.664v.203c.201 1.011-.403 2.023-1.208 2.427-.604.203-1.208.405-2.014.607-.805.203-1.006.81-.805 1.62 0 .201.403.606.604.606.604.202 1.208.202 1.812.202h13.087c1.611 0 1.812-.404 1.812-2.023-.201-.202-.201-.404-.403-.81zm-48.321-1.012c-.201 0-.403-.202-.201-.404 2.416-1.214 2.818-3.845 2.818-6.273 0-2.832-1.208-4.45-3.02-6.676 0 0 0-.203.202-.203 2.416 2.024 3.624 4.047 3.624 7.486 0 2.63-.806 5.059-3.423 6.07zm-1.812-2.832c-.201 1.214-1.007 2.225-2.215 2.63-1.611.607-3.02 1.214-4.832 1.214h-2.617c-.403 0-.806-.405-.806-.81 0-.606-.201-1.213-.201-1.82V67.98v-4.45-1.822c0-1.618.403-1.82 2.013-1.82 1.41 0 3.02.202 4.43.404 2.013.202 3.423 1.416 4.027 3.44.805 2.832.805 5.462.201 8.093zM233.755 56.65v-1.214-4.046-3.035c0-1.012.201-2.023.201-3.035 0-.607.403-1.012 1.007-1.012h.604c1.611.203 3.423.203 5.033.405.806 0 1.41.607 1.812 1.214.202.405.403.607.605 1.012.604 2.63.604 5.058-.605 7.486a1.82 1.82 0 01-1.208 1.214c-2.013 1.011-4.026 1.416-6.241 1.416-.604.405-1.208 0-1.208-.405zm10.671-1.416c1.611-1.416 2.416-3.44 2.416-5.463s-1.409-3.44-2.416-5.058c0 0 0-.202.201-.202 1.611 1.618 3.222 3.035 2.819 5.665-.201 2.225-1.208 4.249-3.02 5.26 0 0-.201-.202 0-.202zm-14.295 5.058c-.202 5.058-.806 9.914-.604 14.972 0 .203-.202.203-.202 0-.805-4.856-.201-9.712 0-14.567.202-5.26 0-10.521.202-15.782 0-.202.201-.202.201 0 0 5.059.403 10.319.403 15.377zm18.926 0l-3.02-1.214c-.202 0-.403-.202-.806-.405.202-.606.806-.606 1.208-.809 1.611-.607 3.02-1.416 4.228-2.63 1.208-1.214 2.014-2.63 1.812-4.451 0-.81 0-1.619-.201-2.428-.403-3.035-2.013-4.856-4.832-5.868-2.617-.809-5.638-1.416-8.456-1.416h-7.047c-3.222.203-6.242.203-9.463.405-.403 0-.805 0-1.208.202-.201 0-.403.202-.403.405-.201 1.618-.201 2.225 1.208 2.428.403 0 .806.202 1.208.202a2.19 2.19 0 011.611 1.619c.201.809.201 1.82.201 2.63v21.649c0 .809 0 1.82-.201 2.63 0 .81-.604 1.214-1.208 1.618-.604.405-1.409.608-2.215.81-.201 0-.402.404-.604.607-.402 1.618 0 2.023 1.611 2.023h6.241c4.43.202 8.859 0 13.289-.405 2.215-.202 4.429-.809 6.644-1.416 2.416-.81 4.027-2.428 4.832-4.856 1.812-3.44 0-9.711-4.429-11.33zm-37.449 0c0 2.833-.403 5.867-1.208 8.498-.806 2.63-2.618 4.45-4.43 6.272-.201.202-.604-.203-.403-.405 1.812-2.428 3.423-4.249 4.027-7.284.604-2.63.806-5.26 1.007-7.688 0-2.63.201-5.058-.604-7.486-.805-2.226-2.014-4.249-3.02-6.272 0 0 0-.202.201 0 1.208 2.023 2.618 4.249 3.624 6.474.806 2.428.806 5.26.806 7.891zm-7.651 13.151c-1.812 2.833-3.222 3.237-6.846 3.035-.805 0-1.208-.607-1.812-1.011-.805-1.012-1.611-2.024-2.013-3.238-.806-2.225-.806-4.45-1.007-6.677 0-1.416 0-8.092.201-10.116 0-2.428.806-4.856 1.41-7.283.402-1.62 1.61-2.63 3.02-3.44 1.611-.607 3.221-.607 4.832.202.403.203.604.405 1.007.607.805.405 1.208 1.012 1.61 1.619.403.81.806 1.618 1.007 2.428.403 2.023.805 3.844.805 5.867 0 2.226-.201 4.451-.201 6.88-.201 3.034-.604 5.867-1.208 8.902-.201.607-.403 1.416-.805 2.225zm-12.081-27.718c-3.422 3.237-4.026 8.7-4.026 13.15.201 5.059 1.208 9.915 2.818 14.568 0 .203-.201.405-.402.203-2.618-4.856-3.624-10.32-3.624-15.782.402-4.451 1.208-9.51 5.234-12.14 0-.404.202-.202 0 0zm22.953 6.272c-.604-1.821-1.812-3.44-3.02-5.058-1.007-1.417-2.013-2.428-3.423-3.238-.604-.202-1.007-.607-1.611-.809-1.812-1.012-3.825-1.416-5.838-1.618-3.222-.405-6.041.202-8.859 1.82-.202.203-.604.203-.806.405-1.006.405-1.812 1.214-2.617 1.821-3.423 3.035-5.436 7.081-6.04 11.532-.202 1.012-.403 2.226-.202 3.238.403 3.44.806 6.879 2.014 10.116.402 1.012.805 2.023 1.409 2.833 1.611 2.023 3.222 3.844 5.638 5.26s4.832 1.821 7.651 1.619c2.617-.203 5.033-1.214 7.449-2.024.403-.202.805-.404 1.007-.607 1.611-1.214 3.221-2.427 4.429-4.046.604-.81 1.208-1.619 1.611-2.428 1.409-3.642 2.617-7.284 2.416-11.533.201-2.428-.403-4.855-1.208-7.283zm-54.966 24.481c0 .202-.402.202-.402 0-.202-2.023-.202-4.249-.202-6.272 0-2.428.403-4.653.202-7.081 0 0 .201-.203.201 0 .403 2.225.201 4.45.403 6.676-.202 2.226.201 4.654-.202 6.677zm-2.818-16.995a150.678 150.678 0 00-4.43-7.689c-1.409-2.428-2.819-4.855-3.624-7.486 0-.202.201-.202.201 0 1.208 2.833 2.819 5.26 4.631 7.891 1.41 2.226 3.222 4.451 3.826 7.081 0 .203-.403.405-.604.203zm20.536-16.59c0-.608-.402-1.013-.805-1.013-2.618-.202-5.034 0-7.651.203-.604 0-1.007.607-1.007 1.214s.202 1.011.806 1.011c.402.203 1.006.203 1.409.203s.604.607.403 1.011c-.202.405-.403 1.012-.604 1.417-2.215 4.248-4.631 8.295-6.846 12.544l-.604.607c-.805-.81-1.007-2.023-1.409-2.833-.403-1.012-1.007-2.023-1.41-2.832l-1.812-3.035c-.604-1.012-1.006-1.821-1.61-2.833-.403-1.011-1.208-1.82-1.41-3.035 1.208 0 2.215-.202 3.222-.202.805 0 1.208-.607 1.208-1.416 0-1.012-.202-1.417-1.007-1.417-3.02 0-6.04-.404-9.262-.404H141.944c-.402 0-.805.404-.805.81v1.213c0 .202.201.607.403.607.201.202.604.202.805.202 1.208 0 1.812.607 2.416 1.417.805 1.214 1.409 2.63 2.215 3.844 1.208 2.428 2.617 4.856 3.825 7.284 1.208 2.023 2.215 4.248 3.423 6.272.403.809.805 1.82.805 2.832v5.26c0 1.012-.201 2.024-.201 3.035 0 .405-.403.81-.604 1.012-.403.202-.805.405-1.409.405-.806.202-1.611.202-2.417.202-.402 0-.604.405-.604.81 0 .606.202 1.213.604 1.213.806.203 1.812.203 2.618.203 4.228-.203 8.456 0 12.684 0 .806 0 1.812-.203 2.618-.203.402 0 .604-.607.604-1.214 0-.404-.403-.607-.806-.809h-1.409c-.403 0-.805-.202-1.208-.202-1.007-.203-1.409-1.012-1.611-2.023v-.608c0-2.427 0-4.855-.201-7.08v-2.631c0-.81.201-1.416.604-2.023 1.208-2.024 2.416-4.047 3.825-6.07 1.208-2.023 2.215-3.844 3.423-5.867.805-1.417 1.611-2.833 2.416-4.047.403-.81 1.208-1.214 2.014-1.416h.604c.805.202 1.208-.607 1.006-1.619zm-45.905 17.4c0 2.832-.403 5.867-1.208 8.497-.805 2.63-2.618 4.45-4.43 6.272-.201.202-.604-.203-.402-.405 1.812-2.428 3.422-4.249 4.026-7.284.605-2.63.806-5.26 1.007-7.688 0-2.63.202-5.058-.604-7.486-.805-2.226-2.013-4.249-3.02-6.272 0 0 0-.202.201 0 1.208 2.023 2.618 4.249 3.625 6.474.805 2.428.805 5.26.805 7.891zm-7.651 13.15c-1.812 2.833-3.221 3.237-6.846 3.035-.805 0-1.208-.607-1.812-1.011-.805-1.012-1.61-2.024-2.013-3.238-.805-2.225-.805-4.45-1.007-6.677 0-1.416 0-8.092.202-10.116 0-2.428.805-4.856 1.409-7.283.403-1.62 1.611-2.63 3.02-3.44 1.611-.607 3.222-.607 4.832.202.403.203.604.405 1.007.607.805.405 1.208 1.012 1.611 1.619.402.81.805 1.618 1.006 2.428.403 2.023.806 3.844.806 5.867 0 2.226-.202 4.451-.202 6.88-.201 3.034-.604 5.867-1.208 8.902 0 .607-.201 1.416-.805 2.225zm-11.879-27.718c-3.423 3.237-4.027 8.7-4.027 13.15.202 5.059 1.208 9.915 2.819 14.568 0 .203-.201.405-.403.203-2.617-4.856-3.624-10.32-3.624-15.782.201-4.451 1.208-9.51 5.235-12.14 0-.404 0-.202 0 0zm22.953 6.272c-.604-1.821-1.812-3.44-3.02-5.058-1.007-1.417-2.014-2.428-3.423-3.238-.604-.202-1.007-.607-1.611-.809-1.812-1.012-3.825-1.416-5.839-1.618-3.221-.405-6.04.202-8.859 1.82-.201.203-.604.203-.805.405-1.007.405-1.812 1.214-2.617 1.821-3.423 3.035-5.437 7.081-6.041 11.532-.201 1.012-.402 2.226-.201 3.238.403 3.44.805 6.879 2.013 10.116.403 1.012.806 2.023 1.41 2.833 1.611 2.023 3.221 3.844 5.637 5.26 2.416 1.416 4.832 1.821 7.651 1.619 2.618-.203 5.034-1.214 7.45-2.024.402-.202.805-.404 1.006-.607 1.611-1.214 3.222-2.427 4.43-4.046.604-.81 1.208-1.619 1.611-2.428 1.409-3.642 2.617-7.284 2.416-11.533.201-2.428-.403-4.855-1.208-7.283zm-43.288 6.879c.201 5.26-.202 10.723-.403 15.983 0 .203-.201.203-.403 0-.805-5.058-.201-10.318-.201-15.376 0-5.26.403-10.521.604-15.782 0-.202.201-.202.201 0 .403 2.428.202 4.856.202 7.284a51.626 51.626 0 000 7.89zM74.697 68.993c-4.027-7.89-5.034-16.793-8.86-24.684 0-.202.202-.202.202-.202 2.215 3.642 3.624 7.486 5.034 11.533 1.41 4.248 2.819 8.7 4.027 13.15-.202.203-.403.405-.403.203zM37.449 35.205c.201-.405.403-.81.604-1.012.202-.202.806-.405 1.208-.202.201.202.201.404 0 .404-.201.203-.604 0-.805.203-.202.202-.604.404-.806.607 0 .202-.2.202-.2 0zm60.402 5.867h-2.013c-2.82.203-5.638.203-8.658-.202h-1.208c-1.007 0-1.61.405-2.013 1.416-.403 1.619-.806 3.035-1.209 4.654-.604 2.225-1.208 4.653-1.812 6.879-.604 1.82-1.208 3.844-1.812 5.665-.402 1.416-1.006 2.832-1.409 4.249 0 .202-.403.202-.403.202l-.201-.202c-.604-1.821-1.41-3.44-1.812-5.26-1.007-2.833-1.61-5.868-2.618-8.903-.805-2.63-1.812-5.058-2.617-7.486-.201-.405-.403-.607-.805-.607h-2.014c-1.41 0-2.617 0-4.026.202h-3.826c-4.43 0-8.658.202-13.087 0-1.41 0-2.819-.202-4.228-.404-.805 0-1.812-.405-2.617-.81-.806-.405-1.209-1.214-1.611-2.023-.202-.607.201-1.012.805-1.012h1.208c1.208-.202 1.812-1.618 1.61-2.832-.2-1.214-1.409-2.023-2.617-1.619-1.812.405-2.818 2.226-3.02 3.642-.402 3.035 1.007 5.26 3.826 6.474 1.208.607 2.617.81 4.027.81h5.234c2.417 0 4.833.202 7.249.202 2.214.607 2.416 1.012 2.416 3.44-.202 5.867-.202 11.734-.403 17.602 0 1.82 0 3.844-.201 5.665v1.416c0 1.416-.403 4.047-2.819 4.25-.604 0-.604 1.82-.201 2.022.201.203 8.053 0 11.275-.202h.201v-2.023c0-.607-2.013-.405-2.416-.405-1.208 0-1.812-2.023-1.812-3.44v-1.82c.201-5.26-.201-10.521.403-15.782v-1.416c0-1.619.2-3.44.2-5.058 0 0 .202-.203.202 0 0 0 .202 0 .202.202 1.208 2.023 2.013 4.249 2.617 6.677 1.208 3.44 2.013 6.879 3.221 10.319l3.624 12.14c.202.606.604 1.01 1.208 1.01.403 0 1.007.203 1.41.203.604 0 1.208-.202 1.41-.81.402-1.01.805-2.023 1.006-3.034.805-3.237 1.812-6.272 2.819-9.307 1.208-3.44 2.416-7.082 3.221-10.723.403-2.226 1.208-4.452 1.812-6.677.201-.405.201-.81.403-1.012l.201-.202c.202-.202.403 0 .403.202v1.821c0 2.428-.201 5.058-.201 7.486-.202 5.26-.202 10.723-.202 15.984v.81c0 1.01-.403 1.416-1.208 2.023-.805.404-2.416.202-2.617.606v1.821c0 .203.201.607.604.607.403.203.805.203 1.208.203 2.215 0 4.63 0 7.45-.203.603 0 1.61 0 2.617.203h4.832c.403 0 .604-.405.604-1.012s.201-1.82-.201-2.023c-.806-.405-1.812 0-2.618-.203-.805-.404-1.208-1.011-1.208-1.82v-2.63c.202-3.238.604-6.273.604-9.51.202-4.249.202-8.295.403-12.544V46.94c0-.607.403-1.214 1.007-1.417.604-.202 1.208-.404 2.013-.607.403-.202.403-.404.403-.607 0-2.832 0-3.44-2.215-3.237zM279.459 143.449c-2.013-5.058-3.826-10.319-6.04-15.175-2.014-4.451-3.02-9.307-4.832-13.96 0 0 .201-.202.201 0 2.416 4.451 3.624 9.712 5.637 14.567a125.384 125.384 0 015.235 14.568s-.201.202-.201 0zm-9.262-11.533c-2.617.405-5.033.203-7.651-.404-.201 0-.201-.203-.402-.405v-.202c1.006-3.845 2.416-7.486 3.825-11.331 0-.202.403-.202.806-.404 1.409 4.046 2.214 8.093 3.422 12.139.202 0 0 .203 0 .607zm16.913 12.949c-.202-.202-.604-.202-.806-.405-1.409-.404-2.416-1.416-2.818-2.832-1.208-3.035-2.416-6.07-3.423-9.105-1.007-3.035-2.013-6.272-3.02-9.307-1.41-3.642-2.819-7.486-4.228-11.128-.202-.404-.202-1.011-.806-1.214-2.416-.404-6.241-.404-8.859 0-.201 0-.604.203-.604.405-.201.405-.201.809.202 1.214.402.405.805.607 1.208 1.012.604.607 1.006 1.214.604 2.023-.202.607-.403 1.214-.604 1.618-1.41 5.059-3.222 9.914-5.235 14.973-1.208 3.034-2.013 6.069-3.221 8.902-.806 1.821-1.611 4.451-3.423 4.249-.604.202-.604 1.011-.403 1.618 0 .405.403.81 1.007.81h9.06s.201 0 .403-.203c.201-.404.201-.809.402-1.416 0-.405-.201-.809-.604-.809-.604 0-1.409 0-2.013-.203-.805 0-1.208-.607-1.409-1.416v-1.416c.201-.809.402-1.821.604-2.63.402-1.214.604-2.631 1.61-3.642 1.812-.607 3.624-.607 5.437-.607 1.61 0 3.422.202 5.033.202.604 0 1.007.202 1.208.809.604 1.821 1.208 3.845 1.812 5.666v.202c.201 1.011-.403 2.023-1.208 2.428-.604.202-1.208.404-2.013.607-.806.202-1.007.809-.806 1.618 0 .203.403.607.604.607.604.203 1.208.203 1.812.203H285.7c1.611 0 1.812-.405 1.812-2.024-.201-.404-.402-.607-.402-.809zM240.6 127.87c.202 5.26-.201 10.723-.402 15.983 0 .203-.202.203-.403 0-.805-5.058-.201-10.318-.201-15.376 0-5.261.402-10.521.604-15.782 0-.202.201-.202.201 0 .403 2.428.201 4.856.201 7.284v7.891zm-17.113 10.318c-4.027-7.89-5.034-16.793-8.859-24.683 0-.203.201-.203.201-.203 2.215 3.642 3.624 7.486 5.033 11.533 1.41 4.249 2.819 8.7 4.027 13.151 0 .202-.201.202-.402.202zm-37.047-33.99c.202-.405.403-.81.604-1.012.202-.202.806-.405 1.208-.202.202.202.202.404 0 .404-.201.203-.604 0-.805.203-.201.202-.604.404-.805.607 0 .404-.403.202-.202 0zm60.201 5.867h-2.014c-2.819.202-5.637.202-8.657-.202h-1.208c-1.007 0-1.611.404-2.014 1.416-.402 1.619-.805 3.035-1.208 4.654-.604 2.225-1.208 4.653-1.812 6.879-.604 1.821-1.208 3.844-1.812 5.665-.403 1.416-1.007 2.832-1.409 4.249 0 .202-.403.202-.403.202l-.201-.202c-.604-1.821-1.41-3.44-1.812-5.261-1.007-2.832-1.611-5.867-2.618-8.902-.805-2.63-1.812-5.058-2.617-7.486-.202-.405-.403-.607-.806-.607h-2.013c-1.409 0-2.617 0-4.027.202h-3.825c-4.43 0-8.658.202-13.087 0-1.41 0-2.819-.202-4.228-.405-.806 0-1.812-.404-2.618-.809-.805-.405-1.208-1.214-1.61-2.023-.202-.607.201-1.012.805-1.012h1.208c1.208-.202 1.812-1.618 1.611-2.832-.202-1.214-1.41-2.024-2.618-1.619-1.812.405-2.819 2.226-3.02 3.642-.403 3.035 1.007 5.26 3.826 6.474 1.208.607 2.617.81 4.026.81h5.235c2.416 0 4.832.202 7.248.202 2.215.607 2.416 1.012 2.416 3.44-.201 5.867-.201 11.734-.402 17.602 0 1.821 0 3.844-.202 5.665v1.416c0 1.417-.402 4.047-2.818 4.249-.604 0-.604 1.821-.202 2.023.202.203 8.054 0 11.275-.202h.202v-2.023c0-.607-2.014-.405-2.416-.405-1.208 0-1.812-2.023-1.812-3.439v-1.821c.201-5.261-.202-10.521.402-15.782v-1.416c0-1.619.202-3.44.202-5.058 0 0 .201-.203.201 0 0 0 .201 0 .201.202 1.208 2.023 2.014 4.249 2.618 6.677 1.208 3.439 2.013 6.879 3.221 10.318l3.624 12.14c.202.607.604 1.012 1.208 1.012.403 0 1.007.202 1.41.202.604 0 1.208-.202 1.409-.809.403-1.012.805-2.024 1.007-3.035.805-3.237 1.812-6.272 2.818-9.307 1.208-3.44 2.417-7.082 3.222-10.723.403-2.226 1.208-4.452 1.812-6.677.201-.405.201-.809.403-1.012l.201-.202c.201-.202.403 0 .403.202v1.821c0 2.428-.202 5.058-.202 7.486-.201 5.261-.201 10.723-.201 15.984v.809c0 1.012-.403 1.416-1.208 2.023-.805.405-2.416.203-2.618.607v1.821c0 .203.202.607.605.607.402.203.805.203 1.208.203 2.214 0 4.63 0 7.449-.203.604 0 1.611 0 2.618.203h4.832c.402 0 .604-.405.604-1.012s.201-1.821-.202-2.023c-.805-.405-1.812 0-2.617-.203-.805-.404-1.208-1.011-1.208-1.82v-2.631c.201-3.237.604-6.272.604-9.509.201-4.249.201-8.295.403-12.544v-2.023c0-.607.402-1.214 1.006-1.417a25.613 25.613 0 012.014-.607c.402-.202.402-.404.402-.607 0-2.832 0-3.237-2.214-3.237zM145.77 139.402c-3.423-3.035-6.041-7.081-8.859-10.723-3.02-4.046-5.839-8.295-8.457-12.544 0 0 0-.202.202-.202 6.04 7.688 11.677 15.579 17.516 23.267 0 .202-.201.405-.402.202zm9.664-28.123c0-.202-.201-.405-.403-.607-.402 0-.604-.202-1.006-.202-1.812 0-3.826 0-5.638-.203h-3.825c-.604 0-1.007.405-1.007 1.214 0 .405 0 .81.403 1.214l1.812.607c1.208.405 1.812 1.214 2.013 2.428v.607c.201 1.619.403 3.642.403 5.261v1.618c-.202 1.417-.202 2.833-.202 4.249v6.07c0 .202-.201.607-.201.809-.201-.202-.604-.202-.805-.404-.806-1.012-1.41-1.821-2.215-2.833-1.409-2.023-2.617-3.844-4.027-5.867-2.819-3.845-5.637-7.689-8.255-11.533-.402-.809-1.006-1.416-1.61-2.226-.202-.202-.202-.404-.403-.404-.201-.405-.806-.607-1.208-.607H118.992c-.403 0-.806.404-.806.809 0 1.214-.201 1.821 1.41 2.023.604 0 1.208.203 1.812.405 1.006.202 1.61.809 1.61 1.821 0 .607.202 1.214.202 1.821 0 1.618.201 3.439 0 5.058a122.472 122.472 0 000 17.198v1.821c-.202 1.214-.403 2.225-1.41 2.832-.402.202-1.61.202-2.416.405-.402 0-.604.202-.604.607v1.416c0 .202.202.405.403.405.403 0 .604.202.805.202 2.819.202 9.463.202 10.067 0 .403 0 .806-.405.806-.809v-1.214c0-.405-.403-.81-.806-.81-.604 0-1.208 0-1.812-.202-1.208-.202-2.013-1.012-2.215-2.428v-1.214c-.201-6.676 0-13.556.202-20.435.402 0 .604 0 .805.203.403.607.805 1.416 1.409 2.225 3.021 3.44 5.638 7.082 8.054 10.724 1.812 2.63 3.825 5.26 5.839 7.89a44.519 44.519 0 014.429 5.868c.202.404.604.607 1.007.607h1.409c2.014 0 2.215-.203 2.215-2.226 0-1.214-.201-2.63-.201-3.844v-3.642c0-5.26.201-10.521.201-15.781v-5.059-1.416c.201-1.011.805-1.821 1.611-2.225a24.875 24.875 0 012.013-.607c.403-.203.604-.405.604-1.012 0 0 0-.202-.201-.607zm-47.113 32.17c-2.014-5.058-3.826-10.319-6.041-15.175-2.013-4.451-3.02-9.307-4.832-13.96 0 0 .202-.202.202 0 2.416 4.451 3.624 9.712 5.637 14.567a125.57 125.57 0 015.235 14.568c.201 0 0 .202-.201 0zm-9.06-11.533c-2.618.405-5.034.203-7.652-.404-.201 0-.201-.203-.402-.405v-.202c1.006-3.845 2.416-7.486 3.825-11.331 0-.202.403-.202.806-.404 1.409 4.046 2.214 8.093 3.422 12.139.202 0 0 .203 0 .607zm16.71 12.949c-.201-.202-.604-.202-.805-.405-1.409-.404-2.416-1.416-2.819-2.832-1.208-3.035-2.416-6.07-3.422-9.105-1.007-3.035-2.014-6.272-3.021-9.307-1.409-3.642-2.818-7.486-4.228-11.128-.201-.404-.201-1.011-.805-1.214-2.416-.404-6.242-.404-8.859 0-.201 0-.604.203-.604.405-.201.405-.201.809.201 1.214.403.405.806.607 1.208 1.012.604.607 1.007 1.214.604 2.023-.2.607-.402 1.214-.604 1.618-1.409 5.059-3.221 9.914-5.234 14.973-1.208 3.034-2.014 6.069-3.222 8.902-.805 1.821-1.61 4.451-3.423 4.249-.604.202-.604 1.011-.402 1.618 0 .405.402.81 1.006.81h9.06s.202 0 .403-.203c.202-.404.202-.809.403-1.416 0-.405-.201-.809-.604-.809-.604 0-1.41 0-2.013-.203-.806 0-1.208-.607-1.41-1.416v-1.416c.202-.809.403-1.821.604-2.63.403-1.214.604-2.631 1.611-3.642 1.812-.607 3.624-.607 5.436-.607 1.61 0 3.423.202 5.034.202.604 0 1.006.202 1.208.809.604 1.821 1.208 3.845 1.812 5.666v.202c.201 1.011-.403 2.023-1.208 2.428-.604.202-1.208.404-2.014.607-.805.202-1.006.809-.805 1.618 0 .203.403.607.604.607.604.203 1.208.203 1.812.203h13.087c1.611 0 1.812-.405 1.812-2.024 0-.404-.201-.607-.403-.809zm-41.274-5.26c.403-6.677-5.436-9.712-10.671-11.533-2.215-.809-5.034-1.416-6.644-3.237-1.41-1.619-1.41-4.047-1.007-6.07h.201c-.201 1.619-.402 3.44.604 4.856 1.007 1.619 3.02 2.428 4.833 3.035 2.416.809 4.63 1.416 7.046 2.63 4.027 2.023 6.645 5.463 5.638 10.319zm-16.309-23.268c.604-1.821 2.014-3.237 4.027-3.642 1.41-.404 2.819-.202 4.027.203.403.202.805 0 1.208.404 1.007.81.805 2.428-.201 3.238a66.018 66.018 0 01-5.436 4.855c-.605-.404-1.007-.607-1.611-1.011-1.007-.607-1.812-1.619-2.014-2.833 0-.202-.2-.809 0-1.214zm-11.073 3.035c.805.607.805 1.619.402 2.428-.2.405-.604.202-.604-.202.403-.607.604-1.417.202-2.226zm30.402 14.365a10.242 10.242 0 00-1.812-4.653c-.604-.607-1.007-1.214-1.61-1.821-.404-.607-1.209-1.012-1.813-1.417-1.812-.809-3.825-1.82-5.839-2.225-.805-.202-1.41-.405-2.013-.607a78.026 78.026 0 013.02-2.428c1.007-.809 7.852-7.486 7.852-8.093 0-.607-1.61-1.416-2.013-1.619-.403 0-1.208 1.214-1.812 1.821-.403-.607-.806-1.011-1.41-1.214-.2 0-2.013-.809-3.02-1.214-1.61-.607-3.422-.809-5.234-.607-2.215 0-4.229 1.012-5.84 2.631-1.006 1.011-1.811 2.225-2.617 3.642-1.61 3.034-1.812 8.497 1.41 11.937-2.215 2.225-4.027 3.844-4.43 4.249-.604.404-1.208.809-2.013 1.214-1.41.607-2.819 1.011-4.228.809-2.82-.405-4.833-2.023-6.04-4.654-.605-1.214-1.007-2.63-1.007-4.046-.202-2.428.805-4.451 2.819-5.868 1.409-1.011 3.02-1.416 4.832-1.011.402 0 .604.607.604.809-.202 1.012-.604 1.821 0 2.833l.604.607c1.006.607 2.617 0 2.818-1.214.202-1.012.202-2.024-.402-2.833-1.007-1.619-2.416-2.832-4.631-2.63h-1.208c-1.41 0-2.617.607-3.624 1.416-1.812 1.416-3.222 3.44-3.423 5.665-.604 3.844.403 7.082 3.221 9.712 2.618 2.225 5.437 3.439 9.06 2.63 1.813-.405 3.02-1.214 4.632-2.225.805-.405 2.214-1.821 2.818-2.226.202 0 .806-.809 1.812-1.619 1.208.81 2.416 1.619 3.826 2.024 1.812.607 3.624 1.214 5.235 1.821 1.409.607 2.818 1.213 4.228 2.225 1.61 1.214 2.013 2.833 1.812 4.654-.604 2.832-2.819 4.046-4.631 4.248-2.819.405-5.235-.202-7.45-2.023-1.812-1.618-3.422-3.642-3.02-6.474 0-.81 0-1.821-.201-2.63 0-.203-.403-.405-.604-.607H55.368c-.402 0-.805.404-.805.809 0 2.225-.201 9.307-.201 10.318v2.833c0 .405.402.809.805.809.604 0 1.208-.202 1.208-.607.201-.404.201-.809.403-1.214.402-1.011 1.208-1.214 2.214-.809 1.007.607 2.014 1.012 3.222 1.619 1.208.607 2.617 1.011 4.027 1.214 1.006.202 2.214.202 3.221-.203.805-.202 1.61-.404 2.215-.809 1.208-.607 2.416-1.416 3.423-2.226 1.409-1.82 2.818-3.844 3.02-6.272-.202-1.214-.403-2.832-.403-4.451zm338.049-59.483c-2.014-5.059-3.826-10.32-6.041-15.175-2.013-4.451-3.02-9.307-4.832-13.96 0 0 .202-.203.202 0 2.416 4.45 3.624 9.711 5.637 14.567a125.357 125.357 0 015.235 14.568c0 .202-.201.202-.201 0zm-9.262-11.533c-2.617.405-5.033.202-7.651-.405-.201 0-.201-.202-.403-.404v-.203c1.007-3.844 2.417-7.486 3.826-11.33 0-.202.403-.202.805-.405 1.41 4.047 2.215 8.093 3.423 12.14.201.202 0 .405 0 .607zm16.913 12.949c-.202-.203-.605-.203-.806-.405-1.409-.404-2.416-1.416-2.819-2.832-1.208-3.035-2.416-6.07-3.422-9.105-1.007-3.035-2.014-6.272-3.02-9.307-1.41-3.642-2.819-7.486-4.229-11.128-.201-.405-.201-1.012-.805-1.214-2.416-.405-6.241-.405-8.859 0-.201 0-.604.202-.604.405-.201.404-.201.809.201 1.214.403.404.806.607 1.208 1.011.604.607 1.007 1.214.604 2.024-.201.607-.402 1.214-.604 1.618-1.409 5.058-3.221 9.914-5.234 14.972-1.208 3.035-2.014 6.07-3.222 8.903-.805 1.82-1.61 4.45-3.423 4.248-.604.203-.604 1.012-.402 1.619 0 .405.402.81 1.006.81h9.061s.201 0 .402-.203c.202-.405.202-.81.403-1.416 0-.405-.201-.81-.604-.81-.604 0-1.409 0-2.013-.202-.806 0-1.208-.607-1.41-1.416V73.04c.202-.81.403-1.821.604-2.63.403-1.215.604-2.63 1.611-3.643 1.812-.606 3.624-.606 5.436-.606 1.611 0 3.423.202 5.034.202.604 0 1.006.202 1.208.81.604 1.82 1.208 3.843 1.812 5.664v.203c.201 1.011-.403 2.023-1.208 2.427-.604.203-1.208.405-2.014.607-.805.203-1.006.81-.805 1.619 0 .202.403.607.604.607.604.202 1.208.202 1.812.202h13.087c1.611 0 1.812-.404 1.812-2.023-.201-.202-.402-.405-.402-.81zm-48.322-1.012c-.201 0-.403-.202-.201-.404 2.416-1.215 2.819-3.845 2.819-6.273 0-2.832-1.209-4.45-3.021-6.676 0 0 0-.203.202-.203 2.416 2.024 3.624 4.047 3.624 7.486 0 2.63-.806 5.059-3.423 6.07zm-1.812-2.832c-.201 1.214-1.007 2.225-2.215 2.63-1.61.607-3.02 1.214-4.832 1.214h-2.617c-.403 0-.604-.405-.806-.81 0-.606-.201-1.213-.201-1.82V67.98v-4.45-1.822c0-1.618.403-1.82 2.013-1.82 1.41 0 3.021.202 4.43.404 2.013.202 3.423 1.416 4.027 3.44.604 2.832.604 5.462.201 8.093zM362.411 56.65v-1.214-4.046-3.035c0-1.012.201-2.023.201-3.035 0-.607.403-1.012 1.007-1.012h.604c1.61.203 3.422.203 5.033.405.806 0 1.41.607 1.812 1.214.202.405.403.607.604 1.012.604 2.63.604 5.058-.604 7.486a1.819 1.819 0 01-1.208 1.213c-2.013 1.012-4.027 1.417-6.241 1.417-.604.405-1.007 0-1.208-.405zm10.872-1.416c1.611-1.416 2.416-3.44 2.416-5.463s-1.409-3.44-2.416-5.058c0 0 0-.202.201-.202 1.611 1.618 3.222 3.035 2.819 5.665-.201 2.225-1.208 4.249-3.02 5.26 0 0-.201-.202 0-.202zm-14.496 5.058c-.202 5.058-.806 9.914-.604 14.972 0 .202-.202.202-.202 0-.805-4.856-.201-9.712 0-14.567.202-5.26 0-10.521.202-15.782 0-.202.201-.202.201 0 .201 5.058.604 10.319.403 15.377zm18.926 0l-3.021-1.214c-.201 0-.402-.202-.805-.405.201-.607.805-.607 1.208-.809 1.611-.607 3.02-1.416 4.228-2.63 1.208-1.214 2.014-2.63 1.812-4.451 0-.81 0-1.619-.201-2.428-.403-3.035-2.013-4.856-4.832-5.868-2.618-.809-5.638-1.416-8.456-1.416h-7.047c-3.222.202-6.242.202-9.463.405-.403 0-.806 0-1.208.202-.202 0-.403.202-.403.405-.201 1.618-.201 2.225 1.208 2.428.403 0 .805.202 1.208.202.805.202 1.409.81 1.611 1.619.201.809.201 1.82.201 2.63v21.649c0 .809 0 1.82-.201 2.63 0 .81-.604 1.214-1.208 1.618-.604.405-1.41.607-2.215.81-.201 0-.403.404-.604.607-.403 1.618 0 2.023 1.611 2.023h6.241c4.43.202 8.859 0 13.289-.405 2.214-.202 4.429-.809 6.644-1.416 2.416-.81 4.027-2.428 4.832-4.856 2.013-3.44.201-9.711-4.429-11.33zM419.792 139.402c-3.422-3.035-6.04-7.081-8.859-10.723-3.02-4.046-5.838-8.295-8.456-12.544 0 0 0-.202.202-.202 6.04 7.688 11.677 15.579 17.516 23.267-.201.202-.403.405-.403.202zm9.665-28.123c0-.202-.202-.405-.403-.607-.403 0-.604-.202-1.007-.202-1.812 0-3.825 0-5.637-.203h-3.826c-.604 0-1.006.405-1.006 1.214 0 .405 0 .81.402 1.214l1.812.607c1.208.405 1.812 1.214 2.014 2.428v.607c.201 1.619.402 3.642.402 5.261v1.618c-.201 1.417-.201 2.833-.201 4.249v6.07c0 .202-.201.607-.201.809-.202-.202-.604-.202-.806-.404-.805-1.012-1.409-1.821-2.214-2.833-1.41-2.023-2.618-3.844-4.027-5.867-2.819-3.845-5.638-7.689-8.255-11.533-.403-.809-1.007-1.416-1.611-2.226-.201-.202-.201-.404-.402-.404-.202-.405-.806-.607-1.208-.607H393.014c-.402 0-.805.404-.805.809 0 1.214-.201 1.821 1.409 2.023.604 0 1.208.203 1.812.405 1.007.202 1.611.809 1.611 1.821 0 .607.201 1.214.201 1.821 0 1.618.202 3.439 0 5.058a122.776 122.776 0 000 17.198v1.821c-.201 1.214-.402 2.225-1.409 2.832-.403.202-1.611.202-2.416.405-.403 0-.604.202-.604.607v1.416c0 .202.201.405.403.405.402 0 .604.202.805.202 2.819.202 9.463.202 10.067 0 .403 0 .805-.405.805-.809v-1.214c0-.405-.402-.81-.805-.81-.604 0-1.208 0-1.812-.202-1.208-.202-2.014-1.011-2.215-2.428v-1.214c-.201-6.676 0-13.556.202-20.435.402 0 .604 0 .805.203.403.607.805 1.416 1.409 2.225 3.02 3.44 5.638 7.082 8.054 10.724 1.812 2.63 3.825 5.26 5.839 7.89 1.61 1.821 3.02 3.642 4.429 5.868.201.404.604.607 1.007.607h1.409c2.014 0 2.215-.203 2.215-2.226 0-1.214-.201-2.63-.201-3.844v-3.642c0-5.26.201-10.521.201-15.781v-5.058-1.417c.201-1.011.805-1.821 1.611-2.225a24.875 24.875 0 012.013-.607c.403-.203.604-.405.604-1.012-.201 0-.201-.202-.201-.607zm-50.738-1.214l.604-.607c.403-.607 1.007-1.214 1.41-2.023.604-.809.604-.809-.403-1.416-.201 0-.403-.203-.604-.203-.201.203-.201.405-.201.607-.202.81-.604 1.821-1.007 2.63 0 .203-.201.405-.201.607 0 0 0 .203.201.203 0 .404.201.404.201.202zm1.007 17.4c0 5.261-.201 10.319-.604 15.579 0 .203-.201.203-.201 0-.202-2.428 0-5.058-.202-7.486v-7.688-14.972c0-.203.202-.203.202 0 1.208 4.653.805 9.711.805 14.567zm6.644 17.4c-.201 0-.604 0-.805-.202-1.208-.203-2.014-1.012-2.215-2.226-.201-1.011-.201-2.023-.201-3.035v-5.867-6.272l.604-10.319c0-.404 0-.809.201-1.214.201-1.011.604-1.618 1.611-2.023.604-.202 1.006-.405 1.61-.607.403-.809.403-1.416 0-2.226-.805-.404-1.61-.404-2.617-.404h-13.691c-.201 0-.403.202-.403.404-.402.81 0 1.619.806 2.024.402.202.805.202 1.208.404 1.208.607 1.812 1.417 2.013 2.631 0 1.011.201 2.023.201 3.034v9.51a95.418 95.418 0 000 10.723c0 1.012 0 2.226-.201 3.237 0 .607-.403 1.012-.805 1.214-.806.405-1.611.607-2.416 1.012a1.112 1.112 0 00-.604 1.011c0 .607-.202 1.214.402 1.619 4.832 0 9.665 0 14.497-.202.402 0 .805 0 1.208-.203.201 0 .604-.202.604-.607v-.607c0-.404-.202-.607-1.007-.809zm-37.248-16.591c0 4.856-.201 9.712-.604 14.77 0 .203-.201.203-.201 0-.403-4.856-.403-9.711-.403-14.77 0-4.855 0-9.914.403-14.769 0-.203.201-.203.201 0 .604 4.855.604 9.914.604 14.769zm16.51-5.665c-.201-3.035-.403-6.069-.403-9.307v-1.214c-.201-1.214-.604-1.416-1.812-1.416-3.221 0-26.576.202-29.798 0-1.208 0-1.611.405-1.812 1.416v1.214c.201 3.035-.201 6.07-.403 9.307v1.214c0 .203.403.405.604.607.202 0 .403 0 .604.203 1.611.202 1.813 0 2.014-1.417 0-.607.201-1.416.201-2.023.202-1.619.604-3.035 1.611-4.451a2.432 2.432 0 011.007-1.012c1.61-1.011 3.422-1.821 5.637-1.618.604 0 1.007.404 1.007 1.011v4.249c0 3.44-.202 6.677 0 10.116.201 3.845.201 7.486 0 11.331-.202 5.26-1.007 4.046-2.819 4.855-.403.203-.805.203-1.007.405-.201 0-.402 0-.604.202-.805.203-1.006.405-1.006 1.214 0 1.012.201 1.214 1.208 1.417 1.812.404 3.825.202 5.637 0 1.007 0 2.014.202 3.222.202 2.818 0 5.234-.405 7.852-.607.201 0 .403 0 .604-.202.201 0 .403-.203.403-.405.402-.809.402-1.619 0-2.226-.202-.202-.806-.202-1.208-.202-.604 0-1.41-.202-1.813-.405-1.409-.202-1.208-2.225-1.61-3.439-.202-.607-.202-1.214-.202-1.821 0-2.63 0-5.058.202-7.688 0-1.619.201-3.44.201-5.059 0-4.046 0-8.295.403-12.341a1.105 1.105 0 011.006-.607c2.014-.203 3.826.607 5.638 1.618.403.203.604.607 1.007 1.012 1.006 1.416 1.409 2.832 1.61 4.451.202.607.202 1.416.202 2.023.201 1.417.402 1.619 2.013 1.417.201 0 .403 0 .604-.203l.604-.607c-.604-.404-.604-.809-.604-1.214zm-47.919 20.84c-1.812-4.047-3.02-8.093-4.63-12.14 0-.202.201-.202.201 0 2.416 3.642 3.624 7.891 4.631 12.14 0 0-.202.202-.202 0zm-7.449-14.972c-1.41.202-2.819.202-4.027.202-2.819 0-2.819.202-2.617-2.832.201-2.428.201-4.856.201-7.487 0-1.213 0-2.63.201-4.046 2.014-.405 3.826-.607 5.436-.405.604 0 1.41 0 2.014.203 1.611.404 2.819 1.214 3.221 2.832.604 2.023.604 4.249.202 6.475-.202 1.416-1.007 2.63-1.812 3.641-.806.81-1.812 1.214-2.819 1.417zm5.839-1.417c3.221-3.237 3.221-9.104.805-12.948 0-.203.201-.203.201-.203 3.02 3.642 3.624 10.521-.805 13.354-.201.202-.403 0-.201-.203zm-16.51 16.187c0 .202-.201.202-.201 0 .201-2.428-.403-4.654-.403-7.082v-7.284c.201-5.058.403-9.914.805-14.972 0-.202.202-.202.202 0 .402 5.058 0 10.319 0 15.377 0 4.654.201 9.509-.403 13.961zm26.577 2.63c-.604-.203-1.41-.203-2.014-.405-.805-.202-1.409-.607-1.812-1.416-.201-.203-.201-.607-.402-.809-1.813-3.642-3.222-7.689-4.631-11.533v-.405c1.006-.607 2.013-1.011 3.02-1.618 3.825-3.035 5.235-8.093 3.221-12.949-.402-1.012-1.006-1.821-2.013-2.63a13.246 13.246 0 00-5.436-2.428 34.165 34.165 0 00-9.061-.607c-2.214 0-4.429.202-6.442.202h-7.45c-.604 0-1.409 0-2.013.202-.403 0-.604.405-.604.81 0 .809.201 1.214.805 1.416.805.202 1.611.405 2.215.607.805.202 1.208 1.012 1.409 1.821V142.235c0 1.012-.604 1.821-1.611 2.428-.604.202-1.208.404-1.61.607-.806.202-1.007.607-1.007 1.618 0 .405.201.81.604.81.604.202 1.409.202 2.013.202 3.02 0 6.041-.202 9.061 0 1.61 0 3.422 0 5.033-.202.201 0 .403-.203.604-.203.403-.404.403-.809.403-1.416 0-.405-.202-.809-.604-.809-1.007-.405-1.812-.607-2.819-1.012-.805-.405-1.409-1.214-1.409-2.023-.202-2.226-.403-4.249-.403-6.475-.201-4.046-.201-3.641 3.624-3.641h1.409c.604 0 1.007.404 1.208 1.011 1.41 3.44 2.819 6.879 4.229 10.521.402 1.012.805 1.821-.202 2.63-.201.203-.201.81 0 1.214 0 .203.403.405.604.607.202.203.403.203.604.203h10.671c.202 0 .604-.203.806-.203.402-.202.402-.607.402-1.011.202-.81 0-1.214-.402-1.214z" fill="#9D7C29"/></svg>