<svg width="57" height="52" fill="none" xmlns="http://www.w3.org/2000/svg"><path d="M38.238 1.228L2.575 17.898A3.942 3.942 0 00.537 20.12a3.93 3.93 0 00.133 3.01l12.25 26.12a3.936 3.936 0 002.231 2.03 3.95 3.95 0 003.015-.14L53.83 34.47a3.942 3.942 0 002.038-2.222 3.93 3.93 0 00-.134-3.01l-12.25-26.12a3.937 3.937 0 00-3.752-2.26 3.948 3.948 0 00-1.494.37zM4.691 21.25L39.462 4.998a.495.495 0 01.655.237l1.461 3.116-35.662 16.67-1.462-3.117a.493.493 0 01.237-.653zm47.021 9.867L16.942 47.37a.495.495 0 01-.655-.237l-5.916-12.615 35.663-16.67 5.916 12.615a.493.493 0 01-.238.654zm-28 4.041l1.391 2.968a.985.985 0 01-.474 1.307l-5.351 2.501a.99.99 0 01-1.31-.473l-1.391-2.968a.984.984 0 01.474-1.307l5.352-2.502a.99.99 0 011.308.474zm14.27-6.67l1.392 2.967a.985.985 0 01-.474 1.307l-10.109 4.725a.989.989 0 01-1.309-.473l-1.392-2.968a.985.985 0 01.474-1.307l10.11-4.725a.989.989 0 011.309.473z" fill="#9D7C29"/></svg>