<svg width="19" height="23" fill="none" xmlns="http://www.w3.org/2000/svg"><path fill-rule="evenodd" clip-rule="evenodd" d="M7.431 0h11.061l-.002 17.155h-5.684v-2.342h2.644V13.5h-2.644v-1.33h2.644v-1.314h-2.642v-5.89L7.431 0zM6.404 4.597V.836l4.072 3.761H6.404zM0 22.381V5.909h11.5v16.472H0zM7.373 8.27a2.8 2.8 0 10-3.112 4.656A2.8 2.8 0 007.373 8.27zM3.359 19.026v1.31h4.916v-1.31H3.359zm0-2.649v1.313h4.916v-1.313H3.359zm2.458-4.3a1.483 1.483 0 100-2.967 1.483 1.483 0 000 2.967z" fill="#fff"/></svg>