<svg width="71" height="93" fill="none" xmlns="http://www.w3.org/2000/svg"><path d="M17.79 35.292c2.678 0 4.686-.574 5.93-1.721 1.338-1.148 1.912-2.965 1.912-5.356 0-2.487-.67-4.304-1.913-5.452-1.243-1.148-3.251-1.817-6.025-1.817h-6.408V40.84h4.017v-5.548h2.487zm-2.487-10.52h2.295c1.34 0 2.296.287 2.965.765.67.478.957 1.339.957 2.486 0 1.148-.287 2.009-.765 2.583-.479.574-1.435.86-2.774.86h-2.678v-6.694zM41.413 38.066c1.722-1.817 2.487-4.208 2.487-7.365 0-3.06-.86-5.547-2.582-7.268-1.722-1.722-4.209-2.583-7.46-2.583H27.45v19.894h6.216c3.444.096 6.026-.86 7.748-2.678zm-3.06-2.678c-.956 1.052-2.391 1.53-4.208 1.53h-2.583V24.772h2.296c2.008 0 3.539.573 4.59 1.626.957 1.052 1.53 2.582 1.53 4.495-.095 1.913-.669 3.443-1.625 4.495zM58.534 24.867v-3.921H46.1V40.84h4.017v-7.843h7.938v-3.826h-7.938v-4.304h8.417z" fill="#947C22"/><path d="M63.794 0H6.026A6 6 0 000 6.026V76.61a6 6 0 006.026 6.026H19.32l-1.817-1.818-1.818-1.817H6.121a2.368 2.368 0 01-2.39-2.39V6.025a2.368 2.368 0 012.39-2.392h57.864a2.368 2.368 0 012.391 2.392V76.61a2.368 2.368 0 01-2.39 2.391H55.76l-1.817 1.817-1.817 1.818h11.86a6 6 0 006.025-6.026V6.026C69.915 2.678 67.14 0 63.794 0z" fill="#947C22"/><path d="M56.047 71.35l-12.53-.096V50.595H26.303v20.372l-12.53-.191L35.198 92.2l20.85-20.85z" fill="#947C22"/></svg>