<svg width="19" height="14" fill="none" xmlns="http://www.w3.org/2000/svg"><g clip-path="url(#clip0)"><path d="M17.218 0H1.781C1.31 0 .856.184.521.513A1.735 1.735 0 000 1.75v10.5c0 .464.188.91.522 1.237.334.329.787.513 1.26.513h15.436c.473 0 .926-.184 1.26-.513.334-.328.522-.773.522-1.237V1.75c0-.464-.188-.91-.522-1.237A1.798 1.798 0 0017.218 0zm0 1.75v1.488c-.832.666-2.158 1.7-4.994 3.883-.625.483-1.863 1.643-2.724 1.63-.861.013-2.1-1.147-2.724-1.63C3.94 4.94 2.614 3.904 1.78 3.238V1.75h15.437zM1.781 12.25V5.484c.85.665 2.057 1.6 3.891 3.013.814.627 2.231 2.011 3.824 2.003 1.585.008 2.986-1.356 3.825-2.003a502.722 502.722 0 003.89-3.013v6.767l-15.43-.001z" fill="#9D7C29"/></g><defs><clipPath id="clip0"><path fill="#fff" d="M0 0h19v14H0z"/></clipPath></defs></svg>