<svg width="20" height="28" fill="none" xmlns="http://www.w3.org/2000/svg"><g clip-path="url(#clip0)"><path d="M8.972 27.44C1.405 15.915 0 14.734 0 10.5c0-2.785 1.054-5.455 2.929-7.425C4.804 1.106 7.348 0 10 0s5.196 1.106 7.071 3.075C18.946 5.045 20 7.715 20 10.5c0 4.234-1.405 5.415-8.972 16.94a1.272 1.272 0 01-.448.415 1.202 1.202 0 01-1.16 0 1.272 1.272 0 01-.448-.415zM10 14.875c.824 0 1.63-.257 2.315-.737a4.337 4.337 0 001.535-1.964c.315-.8.397-1.679.237-2.528a4.447 4.447 0 00-1.14-2.24 4.11 4.11 0 00-2.134-1.197 3.983 3.983 0 00-2.408.249 4.218 4.218 0 00-1.87 1.611 4.532 4.532 0 00-.702 2.431c0 1.16.44 2.273 1.22 3.094A4.068 4.068 0 0010 14.875z" fill="#9D7C29"/></g><defs><clipPath id="clip0"><path fill="#fff" d="M0 0h20v28H0z"/></clipPath></defs></svg>