<svg width="24" height="24" fill="none" xmlns="http://www.w3.org/2000/svg"><g clip-path="url(#clip0)"><path d="M18.634 18.783l-3.093-3.108a.861.861 0 00-1.028-.147L12.04 16.88a13.351 13.351 0 01-3.527-8.305l2.693-.839a.862.862 0 00.608-.841l-.092-4.388a.87.87 0 00-.73-.834l-3.797-.602a.862.862 0 00-.936.53 16.705 16.705 0 009.232 21.75.861.861 0 001.033-.305l2.201-3.15a.875.875 0 00-.096-1.11l.005-.004z" fill="#9D7C29"/></g><defs><clipPath id="clip0"><path fill="#fff" d="M0 0h24v24H0z"/></clipPath></defs></svg>